<?xml version="1.0" encoding="UTF-8"?>
<!DOCTYPE svg PUBLIC "-//W3C//DTD SVG 1.1//EN" "http://www.w3.org/Graphics/SVG/1.1/DTD/svg11.dtd">
<!-- Creator: CorelDRAW -->
<svg xmlns="http://www.w3.org/2000/svg" xml:space="preserve" width="1200px" height="1200px" style="shape-rendering:geometricPrecision; text-rendering:geometricPrecision; image-rendering:optimizeQuality; fill-rule:evenodd; clip-rule:evenodd"
viewBox="0 0 136.663 136.663"
 xmlns:xlink="http://www.w3.org/1999/xlink">
 <defs>
  <style type="text/css">
   <![CDATA[
    .fil2 {fill:white}
    .fil0 {fill:#0563A6}
    .fil1 {fill:white;fill-rule:nonzero}
   ]]>
  </style>
 </defs>
 <g id="Ebene_x0020_1">
  <metadata id="CorelCorpID_0Corel-Layer"/>
  <g id="_225529232">
   <circle id="_225527096" class="fil0" cx="68.3315" cy="68.3314" r="68.3315"/>
   <g>
    <path id="_225527408" class="fil1" d="M21.6607 82.6537l0 -41.0879c0,-1.27221 0.250051,-2.49634 0.701921,-3.62135 0.470495,-1.17117 1.15796,-2.22669 2.00833,-3.11055 0.871633,-0.905964 1.92104,-1.64013 3.09318,-2.14524 1.13544,-0.489121 2.37221,-0.759742 3.65944,-0.759742l62.1198 0c1.28709,0 2.524,0.270622 3.65944,0.759881 1.17214,0.504966 2.22168,1.23927 3.09318,2.1451 0.850366,0.883864 1.53783,1.93939 2.00833,3.11055 0.292444,0.728052 0.500379,1.49752 0.610602,2.29479l-5.85916 0c-0.0296058,-0.0935431 -0.0624084,-0.185418 -0.0981299,-0.275209 -0.200569,-0.504827 -0.495514,-0.959477 -0.86093,-1.33921 -0.34415,-0.357771 -0.749179,-0.644655 -1.19299,-0.837579 -0.41601,-0.180831 -0.875802,-0.281046 -1.36034,-0.281046l-62.1198 0c-0.484534,0 -0.944327,0.100215 -1.36034,0.281046 -0.443669,0.192785 -0.848838,0.479808 -1.19299,0.837579 -0.365555,0.379871 -0.6605,0.834521 -0.861069,1.33921 -0.192785,0.484812 -0.299393,1.02578 -0.299393,1.60177l0 41.0879c0,0.575992 0.106609,1.11682 0.299393,1.60163 0.200569,0.504966 0.495653,0.959616 0.861069,1.33949 0.34415,0.357493 0.749318,0.644377 1.19327,0.837301 0.19209,0.0835355 0.393632,0.149836 0.60254,0.197094l0 5.62968c-1.01494,-0.0842305 -1.99109,-0.335949 -2.90178,-0.72833 -1.17214,-0.504966 -2.22182,-1.23913 -3.09332,-2.14496 -0.850505,-0.884142 -1.53783,-1.93966 -2.00833,-3.11069 -0.45187,-1.12502 -0.701921,-2.349 -0.701921,-3.62122z"/>
    <path id="_225527840" class="fil2" d="M35.4359 96.0052l0 -34.2012 78.7028 0 0 34.2012c0,2.37638 -0.913609,4.54372 -2.38528,6.12061 -1.50211,1.60914 -3.58049,2.60823 -5.87237,2.60823l-62.1875 0c-2.29188,0 -4.37026,-0.99909 -5.87237,-2.60823 -1.47167,-1.57689 -2.38528,-3.74423 -2.38528,-6.12061zm0 -39.1046l0 -3.29597c0,-2.37638 0.913609,-4.54358 2.38528,-6.12061 1.50211,-1.60914 3.58049,-2.60823 5.87237,-2.60823l62.1875 0c2.29188,0 4.37026,0.99909 5.87237,2.60823 1.47167,1.57703 2.38528,3.74423 2.38528,6.12061l0 3.29597 -78.7028 0z"/>
   </g>
  </g>
 </g>
</svg>
