<svg width="28.322mm" height="32.351mm" version="1.1" viewBox="0 0 28.322 32.351" xmlns="http://www.w3.org/2000/svg">
 <g transform="translate(-33.75 -90.703)" shape-rendering="auto">
  <g transform="translate(50.678 -80.712)" stroke-linecap="round" stroke-linejoin="round">
   <path d="m2.5684 184.39a0.5 0.5 0 0 0-0.33203 0.14258l-5.5254 5.3711-2.8867-2.8066a0.5 0.5 0 0 0-0.70703 0.01 0.5 0.5 0 0 0 0.011719 0.70703l3.2344 3.1445a0.50005 0.50005 0 0 0 0.69727 0l5.873-5.709a0.5 0.5 0 0 0 0.00977-0.70703 0.5 0.5 0 0 0-0.375-0.15235z" color="#000000" color-rendering="auto" dominant-baseline="auto" image-rendering="auto" solid-color="#000000" stop-color="#000000" style="font-feature-settings:normal;font-variant-alternates:normal;font-variant-caps:normal;font-variant-east-asian:normal;font-variant-ligatures:normal;font-variant-numeric:normal;font-variant-position:normal;font-variation-settings:normal;inline-size:0;isolation:auto;mix-blend-mode:normal;shape-margin:0;shape-padding:0;text-decoration-color:#000000;text-decoration-line:none;text-decoration-style:solid;text-indent:0;text-orientation:mixed;text-transform:none;white-space:normal"/>
   <g transform="translate(21.987 -9.36)" stroke-linecap="round" stroke-linejoin="round">
    <g transform="translate(15.826,14.339)" stroke-width=".865">
     <path d="m-39.264 175.2c-0.90804-0.0565-1.8263 0.0517-2.6973 0.32032a0.4325 0.4325 0 0 0-0.28516 0.54101 0.4325 0.4325 0 0 0 0.54102 0.28516c0.76892-0.23712 1.5823-0.33327 2.3867-0.2832a0.4325 0.4325 0 0 0 0.45898-0.4043 0.4325 0.4325 0 0 0-0.4043-0.45899zm-4.8516 1.4942a0.4325 0.4325 0 0 0-0.27148 0.0898c-0.72452 0.56373-1.3451 1.2589-1.8223 2.043a0.4325 0.4325 0 0 0 0.14453 0.5957 0.4325 0.4325 0 0 0 0.5957-0.14453c0.42226-0.69383 0.97238-1.3119 1.6133-1.8106a0.4325 0.4325 0 0 0 0.07422-0.60742 0.4325 0.4325 0 0 0-0.33398-0.16601zm-2.6758 4.3379a0.4325 0.4325 0 0 0-0.39258 0.35351c-0.16668 0.90259-0.16916 1.8336-0.0059 2.7363a0.4325 0.4325 0 0 0 0.50391 0.34766 0.4325 0.4325 0 0 0 0.34766-0.50196c-0.14461-0.7994-0.14355-1.6273 0.0039-2.4258a0.4325 0.4325 0 0 0-0.3457-0.5039 0.4325 0.4325 0 0 0-0.11133-6e-3zm0.94336 4.9941a0.4325 0.4325 0 0 0-0.22656 0.0625 0.4325 0.4325 0 0 0-0.14648 0.59375c0.47475 0.78585 1.0942 1.4828 1.8164 2.0488a0.4325 0.4325 0 0 0 0.60547-0.0742 0.4325 0.4325 0 0 0-0.07227-0.60743c-0.63941-0.50114-1.1895-1.1194-1.6094-1.8144a0.4325 0.4325 0 0 0-0.36719-0.20898zm4.0137 3.1309a0.4325 0.4325 0 0 0-0.43164 0.30468 0.4325 0.4325 0 0 0 0.2832 0.54102c0.87752 0.27317 1.8036 0.38217 2.7188 0.32617a0.4325 0.4325 0 0 0 0.4043-0.45898 0.4325 0.4325 0 0 0-0.45898-0.4043c-0.81157 0.0497-1.6315-0.0479-2.4062-0.28906a0.4325 0.4325 0 0 0-0.10938-0.0195z" color="#000000" color-rendering="auto" dominant-baseline="auto" image-rendering="auto" solid-color="#000000" stop-color="#000000" style="font-feature-settings:normal;font-variant-alternates:normal;font-variant-caps:normal;font-variant-east-asian:normal;font-variant-ligatures:normal;font-variant-numeric:normal;font-variant-position:normal;font-variation-settings:normal;inline-size:0;isolation:auto;mix-blend-mode:normal;shape-margin:0;shape-padding:0;text-decoration-color:#000000;text-decoration-line:none;text-decoration-style:solid;text-indent:0;text-orientation:mixed;text-transform:none;white-space:normal"/>
     <path d="m-39.84 175.19a0.4325 0.4325 0 0 0-0.43164 0.43359 0.4325 0.4325 0 0 0 0.43164 0.43164h0.0098c3.7128 0 6.7128 3.0001 6.7129 6.7129 0 3.7128-3.0001 6.7128-6.7129 6.7129a0.4325 0.4325 0 0 0-0.43164 0.4336 0.4325 0.4325 0 0 0 0.43164 0.43164c4.1802-6e-5 7.5781-3.3979 7.5781-7.5781-5.3e-5 -4.1802-3.3979-7.5781-7.5781-7.5781z" color="#000000" color-rendering="auto" dominant-baseline="auto" image-rendering="auto" solid-color="#000000" stop-color="#000000" style="font-feature-settings:normal;font-variant-alternates:normal;font-variant-caps:normal;font-variant-east-asian:normal;font-variant-ligatures:normal;font-variant-numeric:normal;font-variant-position:normal;font-variation-settings:normal;inline-size:0;isolation:auto;mix-blend-mode:normal;shape-margin:0;shape-padding:0;text-decoration-color:#000000;text-decoration-line:none;text-decoration-style:solid;text-indent:0;text-orientation:mixed;text-transform:none;white-space:normal"/>
    </g>
    <path d="m-19.418 193.76a0.5 0.5 0 0 0-0.33203 0.14062l-5.5254 5.3711-2.8867-2.8066a0.5 0.5 0 0 0-0.70703 0.01 0.5 0.5 0 0 0 0.0098 0.70703l3.2363 3.1465a0.50005 0.50005 0 0 0 0.69727 0l5.873-5.7109a0.5 0.5 0 0 0 0.0098-0.70703 0.5 0.5 0 0 0-0.375-0.15039z" color="#000000" color-rendering="auto" dominant-baseline="auto" image-rendering="auto" solid-color="#000000" stop-color="#000000" style="font-feature-settings:normal;font-variant-alternates:normal;font-variant-caps:normal;font-variant-east-asian:normal;font-variant-ligatures:normal;font-variant-numeric:normal;font-variant-position:normal;font-variation-settings:normal;inline-size:0;isolation:auto;mix-blend-mode:normal;shape-margin:0;shape-padding:0;text-decoration-color:#000000;text-decoration-line:none;text-decoration-style:solid;text-indent:0;text-orientation:mixed;text-transform:none;white-space:normal"/>
   </g>
  </g>
  <path d="m40.159 91.854c-0.61918-0.0732-1.1911 0.37666-1.2645 0.9946l-3.0494 25.688c-0.07335 0.61794 0.37764 1.1869 0.99682 1.2601l20.42 2.4144c0.61917 0.0732 1.189-0.37503 1.2624-0.99297l3.0494-25.688c0.0734-0.61794-0.37555-1.1885-0.99473-1.2617zm-0.08827 0.7435 20.42 2.4144c0.2195 0.02595 0.364 0.21107 0.338 0.43013l-3.0494 25.688c-0.026 0.21905-0.20965 0.36349-0.42914 0.33753l-20.42-2.4144c-0.21949-0.0259-0.36609-0.20943-0.34008-0.42848l3.0494-25.688c0.026-0.21906 0.21172-0.36514 0.43121-0.33918z" color="#000000" color-rendering="auto" dominant-baseline="auto" image-rendering="auto" opacity=".2" solid-color="#000000" stop-color="#000000" style="font-feature-settings:normal;font-variant-alternates:normal;font-variant-caps:normal;font-variant-east-asian:normal;font-variant-ligatures:normal;font-variant-numeric:normal;font-variant-position:normal;font-variation-settings:normal;inline-size:0;isolation:auto;mix-blend-mode:normal;shape-margin:0;shape-padding:0;text-decoration-color:#000000;text-decoration-line:none;text-decoration-style:solid;text-indent:0;text-orientation:mixed;text-transform:none;white-space:normal"/>
  <path d="m54.976 90.703c-0.0778 0.0019-0.1566 0.01171-0.23513 0.02997l-7.291 1.6955 2.2345 0.26407 5.2297-1.2159c0.22836-0.05311 0.4399 0.08014 0.493 0.30851l0.37879 1.6288 0.80822 0.0956-0.44132-1.8981c-0.12783-0.54974-0.63183-0.92183-1.1767-0.90847zm-16.512 3.8153-3.8044 0.8847c-0.62826 0.14611-1.0246 0.78353-0.8785 1.4118l2.9197 12.557 0.26562-2.2381-2.4396-10.492c-0.0531-0.22837 0.07756-0.44144 0.30592-0.49454l3.5352-0.82217zm21.753 14.574-0.26562 2.2381 1.3451 5.7847c0.0531 0.22836-0.0776 0.44143-0.30592 0.49455l-1.835 0.42684-0.0961 0.80616 2.1037-0.48938c0.62827-0.14611 1.0251-0.78354 0.87902-1.4118zm-20.954 11.301 0.40721 1.7513c0.14608 0.62826 0.78354 1.0246 1.4118 0.8785l6.8828-1.6009-2.2345-0.26406-4.8214 1.1214c-0.22836 0.0531-0.4399-0.0801-0.49299-0.30851l-0.34468-1.4821z" color="#000000" color-rendering="auto" dominant-baseline="auto" image-rendering="auto" opacity=".4" solid-color="#000000" stop-color="#000000" style="font-feature-settings:normal;font-variant-alternates:normal;font-variant-caps:normal;font-variant-east-asian:normal;font-variant-ligatures:normal;font-variant-numeric:normal;font-variant-position:normal;font-variation-settings:normal;inline-size:0;isolation:auto;mix-blend-mode:normal;shape-margin:0;shape-padding:0;text-decoration-color:#000000;text-decoration-line:none;text-decoration-style:solid;text-indent:0;text-orientation:mixed;text-transform:none;white-space:normal"/>
 </g>
</svg>
