<?xml version="1.0" encoding="UTF-8"?>
<!DOCTYPE svg PUBLIC "-//W3C//DTD SVG 1.1//EN" "http://www.w3.org/Graphics/SVG/1.1/DTD/svg11.dtd">
<!-- Creator: CorelDRAW -->
<svg xmlns="http://www.w3.org/2000/svg" xml:space="preserve" width="1800px" height="1500px" style="shape-rendering:geometricPrecision; text-rendering:geometricPrecision; image-rendering:optimizeQuality; fill-rule:evenodd; clip-rule:evenodd"
viewBox="0 0 469.529 398.43"
 xmlns:xlink="http://www.w3.org/1999/xlink">
 <defs>
  <style type="text/css">
   <![CDATA[
    .str0 {stroke:#CCCCCC;stroke-width:9.47824}
    .str1 {stroke:white;stroke-width:9.47824}
    .fil5 {fill:none}
    .fil0 {fill:white}
    .fil1 {fill:#336699;fill-rule:nonzero}
    .fil3 {fill:#999999;fill-rule:nonzero}
    .fil4 {fill:#CCCCCC;fill-rule:nonzero}
    .fil2 {fill:white;fill-rule:nonzero}
   ]]>
  </style>
   <clipPath id="id0">
    <path d="M-0 0l469.529 0 0 398.43 -469.529 0 0 -398.43z"/>
   </clipPath>
 </defs>
 <g id="Ebene_x0020_1">
  <metadata id="CorelCorpID_0Corel-Layer"/>
  <g>
  </g>
  <g style="clip-path:url(#id0)">
   <g>
    <g id="_173963136">
     <rect id="_225526616" class="fil0 str0" transform="matrix(-0.22765 -1.29107 1.16023 -0.20458 62.6265 389.832)" width="240.781" height="343.973" rx="30.0978" ry="30.0978"/>
     <rect id="_225526280" class="fil0" transform="matrix(0.22765 -1.29107 1.16023 0.20458 7.81252 319.463)" width="240.781" height="343.973" rx="30.0978" ry="30.0978"/>
     <path id="_173962128" class="fil1 str1" d="M8.78572 279.578l41.0172 -232.621 0 -0.000335846 0.0933651 -0.528285c2.14639,-12.1754 8.6178,-22.4899 17.3132,-29.2965 8.86834,-6.94227 20.0366,-10.2534 31.3636,-8.2561l328.719 57.9623 0.000335846 0 0.528285 0.0930293c11.3502,2.0013 20.7254,8.93551 26.6846,18.4927 5.74733,9.21695 8.30546,20.8977 6.32901,32.882l0 0.0181357 -0.0933651 0.527614 -41.0172 232.621 0 0.00100754 -0.0930293 0.527614c-2.14639,12.1758 -8.6178,22.4899 -17.3132,29.2965 -8.86834,6.9426 -20.0369,10.2537 -31.364,8.2561l-329.247 -58.055c-11.3509,-2.00164 -20.7264,-8.93518 -26.6856,-18.493 -5.83364,-9.35666 -8.3817,-21.253 -6.23531,-33.4277z"/>
     <path id="_173961840" class="fil2" d="M61.6529 48.4817l-41.1105 233.148c-1.62113,9.19646 0.26196,18.1169 4.60176,25.0776 4.2152,6.75957 10.7598,11.6488 18.6146,13.0338l329.247 58.055c7.87894,1.38939 15.7132,-0.964549 21.9868,-5.87596 6.44421,-5.04407 11.2549,-12.7709 12.8783,-21.9596l0.00235092 -0.013098 41.0175 -232.62 0 -0.000671691 0.0930293 -0.527949c1.62146,-9.19646 -0.26196,-18.1165 -4.60243,-25.0769 -4.21218,-6.75587 -10.7528,-11.6441 -18.6025,-13.0315l-0.0114188 -0.00201507 -329.247 -58.0553c-7.87894,-1.38939 -15.7135,0.964885 -21.9868,5.87596 -6.44387,5.04407 -11.2552,12.7702 -12.8783,21.9589l-0.00235092 0.0134338z"/>
     <path id="_173968008" class="fil3" d="M8.78572 279.578l41.0172 -232.621 0 -0.000335846 0.0933651 -0.528285c2.14639,-12.1754 8.6178,-22.4899 17.3132,-29.2965 8.86834,-6.94227 20.0366,-10.2534 31.3636,-8.2561l328.719 57.9623 0.000335846 0 0.528285 0.0930293c11.3502,2.0013 20.7254,8.93551 26.6846,18.4927 5.74733,9.21695 8.30546,20.8977 6.32901,32.882l0 0.0181357 -0.0933651 0.527614 -41.0172 232.621 0 0.00100754 -0.0930293 0.527614c-2.14639,12.1758 -8.6178,22.4899 -17.3132,29.2965 -8.86834,6.9426 -20.0369,10.2537 -31.364,8.2561l-329.247 -58.055c-11.3509,-2.00164 -20.7264,-8.93518 -26.6856,-18.493 -5.83364,-9.35666 -8.3817,-21.253 -6.23531,-33.4277z"/>
     <path id="_224891544" class="fil2" d="M61.6529 48.4817l-41.1105 233.148c-1.62113,9.19646 0.26196,18.1169 4.60176,25.0776 4.2152,6.75957 10.7598,11.6488 18.6146,13.0338l329.247 58.055c7.87894,1.38939 15.7132,-0.964549 21.9868,-5.87596 6.44421,-5.04407 11.2549,-12.7709 12.8783,-21.9596l0.00235092 -0.013098 41.0175 -232.62 0 -0.000671691 0.0930293 -0.527949c1.62146,-9.19646 -0.26196,-18.1165 -4.60243,-25.0769 -4.21218,-6.75587 -10.7528,-11.6441 -18.6025,-13.0315l-0.0114188 -0.00201507 -329.247 -58.0553c-7.87894,-1.38939 -15.7135,0.964885 -21.9868,5.87596 -6.44387,5.04407 -11.2552,12.7702 -12.8783,21.9589l-0.00235092 0.0134338z"/>
    </g>
    <path class="fil4" d="M243.792 104.949l-0.474214 -0.0439958 -0.580677 -0.0651541 -0.597805 -0.0453392 -0.582021 -0.0419807 -0.599149 -0.0382864 -0.600492 -0.0345921 -0.584707 -0.0315695 -0.6015 -0.0275393 -0.586722 -0.0241809 -0.603179 -0.0204866 -0.604186 -0.0171281 -0.588738 -0.0134338 -0.605194 -0.00973953 -0.606537 -0.00638107 -0.590753 -0.00235092 -0.591424 0.00100754 -0.592432 0.00470184 -0.609224 0.0080603 -0.60956 0.0120904 -0.594447 0.0157847 -0.611239 0.0194791 -0.595454 0.0228375 -0.612583 0.0268677 -0.612583 0.030562 -0.59747 0.0339204 -0.614262 0.0379506 -0.614598 0.0416449 -0.599485 0.045675 -0.615605 0.0490335 0.712665 8.26113 0.551123 -0.0490335 0.566572 -0.045675 0.550115 -0.0416449 0.549108 -0.0379506 0.565228 -0.0339204 0.5481 -0.030562 0.547429 -0.0268677 0.563213 -0.0228375 0.546757 -0.0194791 0.561534 -0.0157847 0.545078 -0.0120904 0.54407 -0.0080603 0.560191 -0.00470184 0.559183 -0.00100754 0.558511 0.00235092 0.541383 0.00638107 0.540712 0.00973953 0.556496 0.0134338 0.539032 0.0171281 0.538697 0.0204866 0.55381 0.0241809 0.537017 0.0275393 0.552466 0.0315695 0.535338 0.0345921 0.534666 0.0382864 0.549779 0.0419807 0.532651 0.0453392 0.548436 0.0329129 0.474214 0.0439958 0.712665 -8.22889zm-47.4775 7.71404l-0.14878 0.0658258 -0.521904 0.227703 -0.536681 0.247182 -0.518546 0.249533 -0.532987 0.236771 -0.515187 0.255579 -0.513172 0.258265 -0.527614 0.245503 -0.509814 0.264311 -0.523919 0.267333 -0.506119 0.270356 -0.504104 0.256586 -0.518882 0.276065 -0.50041 0.278416 -0.515187 0.281775 -0.496716 0.268341 -0.495037 0.287148 -0.509478 0.289835 -0.491006 0.292522 -0.489327 0.279424 -0.503433 0.298567 -0.485633 0.300918 -0.483618 0.303605 -0.497723 0.306291 -0.479924 0.309314 -0.477573 0.295544 -0.491678 0.314687 -0.473542 0.317374 -0.472199 0.319725 -0.469512 0.322412 -0.408724 0.27405 4.69714 6.80289 0.344242 -0.241137 0.437271 -0.290171 0.439286 -0.287484 0.441301 -0.285133 0.427196 -0.281775 0.445331 -0.295544 0.447011 -0.277073 0.433241 -0.27405 0.451377 -0.271363 0.45272 -0.268677 0.43895 -0.265654 0.457086 -0.279424 0.458765 -0.26028 0.444324 -0.257594 0.462795 -0.254907 0.464475 -0.268341 0.450033 -0.248862 0.468169 -0.246175 0.453728 -0.243824 0.471863 -0.256586 0.473878 -0.238115 0.459437 -0.23442 0.476901 -0.232069 0.463131 -0.245503 0.480931 -0.226024 0.482274 -0.223337 0.468505 -0.236771 0.486305 -0.217292 0.471527 -0.21427 0.489663 -0.227703 0.14878 -0.0658258 -3.3692 -7.54847zm-44.1177 40.1964l-0.25625 0.458429 -0.279759 0.509814 -0.276401 0.495037 -0.273714 0.497052 -0.254571 0.514851 -0.268005 0.500074 -0.265654 0.501753 -0.246175 0.519889 -0.259609 0.505112 -0.25625 0.522576 -0.237779 0.508806 -0.250541 0.509814 -0.247854 0.527278 -0.229047 0.513172 -0.242145 0.530636 -0.239122 0.515859 -0.219979 0.517538 -0.233077 0.535338 -0.213934 0.520561 -0.227368 0.538361 -0.224345 0.523248 -0.204866 0.541047 -0.2183 0.526606 -0.199157 0.527949 -0.211919 0.545078 -0.192775 0.530636 -0.206209 0.548436 -0.203187 0.533323 -0.183708 0.551123 -0.196806 0.53601 -0.0597805 0.207888 7.83998 2.6243 0.0597805 -0.143406 0.164564 -0.503769 0.183708 -0.485969 0.170274 -0.501082 0.173968 -0.483282 0.192775 -0.498395 0.179677 -0.480595 0.199157 -0.495708 0.186059 -0.493693 0.204866 -0.476565 0.191432 -0.491006 0.195126 -0.473207 0.213934 -0.48832 0.200836 -0.470184 0.219979 -0.485297 0.206881 -0.483618 0.209232 -0.466154 0.229047 -0.480259 0.215613 -0.462795 0.2183 -0.477573 0.237779 -0.475893 0.224009 -0.458094 0.227368 -0.472871 0.246175 -0.454735 0.232741 -0.469512 0.235764 -0.467833 0.254571 -0.449697 0.241473 -0.46481 0.24416 -0.462795 0.246847 -0.44466 0.25625 -0.458429 -7.22404 -4.01739zm-11.3281 58.5621l0.0355996 0.276065 0.0779162 0.606873 0.0812747 0.589409 0.084969 0.604522 0.104448 0.587058 0.0920217 0.6015 0.0953802 0.600828 0.0990745 0.583028 0.118218 0.597805 0.105791 0.580341 0.10915 0.595119 0.128965 0.594111 0.115867 0.575975 0.119561 0.591088 0.139376 0.573624 0.125942 0.588066 0.129636 0.587394 0.149115 0.568923 0.136018 0.584036 0.155832 0.566572 0.142734 0.581013 0.146093 0.563549 0.165572 0.578326 0.15281 0.560526 0.172289 0.574968 0.159191 0.57396 0.17867 0.55616 0.165572 0.570938 0.185051 0.552802 0.10109 0.345585 7.87222 -2.55914 -0.10109 -0.281103 -0.15281 -0.520561 -0.165572 -0.505784 -0.146429 -0.523919 -0.159191 -0.508806 -0.139376 -0.510485 -0.15281 -0.528285 -0.133331 -0.513172 -0.146093 -0.531308 -0.142734 -0.516531 -0.123591 -0.533659 -0.136018 -0.519553 -0.116874 -0.536681 -0.129636 -0.52224 -0.125942 -0.523583 -0.106463 -0.540712 -0.119561 -0.526606 -0.115867 -0.543734 -0.0967236 -0.528957 -0.10915 -0.530636 -0.105791 -0.5481 -0.0859765 -0.532651 -0.0990745 -0.550787 -0.0953802 -0.535674 -0.0920217 -0.537017 -0.0722068 -0.554817 -0.084969 -0.539368 -0.0812747 -0.557168 -0.0779162 -0.542391 -0.0355996 -0.276065 -8.19598 1.06933zm25.9417 53.7296l0.0235092 0.0245167 0.396298 0.404694 0.398313 0.402679 0.401336 0.400328 0.403015 0.397977 0.40503 0.39529 0.407717 0.393275 0.426188 0.390924 0.411747 0.388573 0.414098 0.402007 0.416449 0.383872 0.4188 0.381185 0.420479 0.378834 0.42283 0.376483 0.424845 0.373796 0.443316 0.371781 0.429211 0.368759 0.431226 0.366744 0.433241 0.364057 0.435592 0.361706 0.437271 0.359019 0.455743 0.340548 0.441637 0.353981 0.443652 0.351295 0.445331 0.34928 0.447682 0.346593 0.465818 0.343906 0.451377 0.341219 0.453392 0.338532 0.455407 0.336517 0.473878 0.333495 0.22233 0.162549 4.76229 -6.77065 -0.190089 -0.130308 -0.408724 -0.301254 -0.423166 -0.303605 -0.421151 -0.306291 -0.419135 -0.308978 -0.400664 -0.311665 -0.415441 -0.314352 -0.41309 -0.316367 -0.411411 -0.319053 -0.408724 -0.32174 -0.39126 -0.340548 -0.40503 -0.326778 -0.402679 -0.328793 -0.401 -0.331816 -0.398985 -0.334502 -0.39697 -0.336517 -0.378162 -0.338868 -0.392604 -0.341555 -0.390589 -0.344242 -0.388238 -0.346593 -0.385887 -0.348944 -0.384207 -0.350959 -0.381857 -0.337525 -0.379506 -0.356332 -0.361034 -0.358012 -0.375476 -0.361034 -0.372789 -0.363049 -0.370774 -0.365736 -0.368423 -0.367415 -0.366072 -0.370438 -0.364057 -0.372453 -0.0235092 -0.0245167 -5.92835 5.76647zm52.9232 27.5686l0.0379506 0.00604522 0.586051 0.102769 0.571274 0.0832897 0.588738 0.0799313 0.572953 0.0765728 0.590753 0.0732144 0.591088 0.0859765 0.575975 0.0661616 0.593439 0.0628031 0.577655 0.0594447 0.594783 0.0557504 0.596126 0.0523919 0.580677 0.0651541 0.597805 0.0453392 0.582021 0.0419807 0.599149 0.0382864 0.600492 0.0345921 0.584707 0.0315695 0.6015 0.0275393 0.586722 0.0241809 0.603179 0.0204866 0.604186 0.0171281 0.588738 0.0134338 0.605194 0.00973953 0.606537 0.00638107 0.590753 0.00235092 0.591424 -0.00100754 0.592432 -0.00470184 0.609224 -0.0080603 0.60956 -0.0120904 0.0769087 -0.00167923 -0.227032 -8.26113 -0.0439958 0.00167923 -0.545078 0.0120904 -0.54407 0.0080603 -0.560191 0.00470184 -0.559183 0.00100754 -0.558511 -0.00235092 -0.541383 -0.00638107 -0.540712 -0.00973953 -0.556496 -0.0134338 -0.539032 -0.0171281 -0.538697 -0.0204866 -0.55381 -0.0241809 -0.537017 -0.0275393 -0.552466 -0.0315695 -0.535338 -0.0345921 -0.534666 -0.0382864 -0.549779 -0.0419807 -0.532651 -0.0453392 -0.548436 -0.0329129 -0.530972 -0.0523919 -0.5303 -0.0557504 -0.545413 -0.0594447 -0.528285 -0.0628031 -0.543734 -0.0661616 -0.526606 -0.0530636 -0.525599 -0.0732144 -0.540712 -0.0765728 -0.523583 -0.0799313 -0.539032 -0.0832897 -0.521568 -0.0705276 -0.0379506 -0.00604522 -1.29569 8.16374zm58.907 -9.5716l0.431898 -0.227032 0.518882 -0.276065 0.50041 -0.278416 0.515187 -0.281775 0.496716 -0.268341 0.495037 -0.287148 0.509478 -0.289835 0.491006 -0.292522 0.489327 -0.279424 0.503433 -0.298567 0.485633 -0.300918 0.483618 -0.303605 0.497723 -0.306291 0.479924 -0.309314 0.477573 -0.295544 0.491678 -0.314687 0.473542 -0.317374 0.472199 -0.319725 0.469512 -0.322412 0.483618 -0.325434 0.466154 -0.327785 0.463467 -0.314016 0.477573 -0.332823 0.459773 -0.33551 0.457422 -0.338532 0.455407 -0.340548 0.453392 -0.343234 0.467497 -0.345585 0.449026 -0.348272 0.447011 -0.351295 0.177327 -0.14307 -5.11829 -6.47914 -0.145085 0.110829 -0.414769 0.318382 -0.416785 0.316031 -0.402343 0.313344 -0.421151 0.310993 -0.423166 0.308306 -0.425181 0.30562 -0.42686 0.303269 -0.41309 0.300582 -0.431226 0.314016 -0.433241 0.295544 -0.419135 0.292522 -0.437271 0.290171 -0.439286 0.287484 -0.441301 0.285133 -0.427196 0.281775 -0.445331 0.295544 -0.447011 0.277073 -0.433241 0.27405 -0.451377 0.271363 -0.45272 0.268677 -0.43895 0.265654 -0.457086 0.279424 -0.458765 0.26028 -0.444324 0.257594 -0.462795 0.254907 -0.464475 0.268341 -0.450033 0.248862 -0.468169 0.246175 -0.453728 0.243824 -0.431898 0.227032 3.85484 7.32144zm41.4675 -42.91l0.0973953 -0.201843 0.250541 -0.509814 0.247854 -0.527278 0.229047 -0.513172 0.242145 -0.530636 0.239122 -0.515859 0.219979 -0.517538 0.233077 -0.535338 0.213934 -0.520561 0.227368 -0.538361 0.224345 -0.523248 0.204866 -0.541047 0.2183 -0.526606 0.199157 -0.527949 0.211919 -0.545078 0.192775 -0.530636 0.206209 -0.548436 0.203187 -0.533323 0.183708 -0.551123 0.196806 -0.53601 0.177327 -0.553474 0.19076 -0.539032 0.171281 -0.55616 0.184379 -0.541383 0.1649 -0.559183 0.161878 -0.54407 0.174976 -0.561198 0.155497 -0.546757 0.16893 -0.563885 0.149115 -0.549108 0.127957 -0.441301 -8.00186 -2.13799 -0.095716 0.376147 -0.149115 0.516867 -0.136018 0.499403 -0.155497 0.513844 -0.142734 0.496716 -0.161878 0.511829 -0.1649 0.494029 -0.152138 0.509142 -0.171281 0.491678 -0.158519 0.506119 -0.177327 0.488991 -0.164564 0.503769 -0.183708 0.485969 -0.170274 0.501082 -0.173968 0.483282 -0.192775 0.498395 -0.179677 0.480595 -0.199157 0.495708 -0.186059 0.493693 -0.204866 0.476565 -0.191432 0.491006 -0.195126 0.473207 -0.213934 0.48832 -0.200836 0.470184 -0.219979 0.485297 -0.206881 0.483618 -0.209232 0.466154 -0.229047 0.480259 -0.215613 0.462795 -0.2183 0.477573 -0.0973953 0.201843 7.45107 3.56332zm7.60153 -59.1733l-0.0540712 -0.279759 -0.128965 -0.594111 -0.115867 -0.575975 -0.119561 -0.591088 -0.139376 -0.573624 -0.125942 -0.588066 -0.129636 -0.587394 -0.149115 -0.568923 -0.136018 -0.584036 -0.155832 -0.566572 -0.142734 -0.581013 -0.146093 -0.563549 -0.165572 -0.578326 -0.15281 -0.560526 -0.172289 -0.574968 -0.159191 -0.57396 -0.17867 -0.55616 -0.165572 -0.570938 -0.185051 -0.552802 -0.172289 -0.567579 -0.191096 -0.549779 -0.17867 -0.564892 -0.197813 -0.546757 -0.184715 -0.561534 -0.204194 -0.543398 -0.191096 -0.558176 -0.210239 -0.540712 -0.197477 -0.554817 -0.216285 -0.537017 -0.177327 -0.484625 -7.71035 3.04545 0.177327 0.419471 0.184043 0.504776 0.197477 0.490335 0.177998 0.507799 0.191096 0.493693 0.171281 0.511157 0.184715 0.49638 0.165572 0.514516 0.17867 0.499738 0.158855 0.517538 0.172289 0.503097 0.15281 0.520561 0.165572 0.505784 0.146429 0.523919 0.159191 0.508806 0.139376 0.510485 0.15281 0.528285 0.133331 0.513172 0.146093 0.531308 0.142734 0.516531 0.123591 0.533659 0.136018 0.519553 0.116874 0.536681 0.129636 0.52224 0.125942 0.523583 0.106463 0.540712 0.119561 0.526606 0.115867 0.543734 0.0967236 0.528957 0.0540712 0.279759 8.1315 -1.58721zm-29.3267 -51.9819l-0.187738 -0.170274 -0.420479 -0.378834 -0.42283 -0.376483 -0.424845 -0.373796 -0.443316 -0.371781 -0.429211 -0.368759 -0.431226 -0.366744 -0.433241 -0.364057 -0.435592 -0.361706 -0.437271 -0.359019 -0.455743 -0.340548 -0.441637 -0.353981 -0.443652 -0.351295 -0.445331 -0.34928 -0.447682 -0.346593 -0.465818 -0.343906 -0.451377 -0.341219 -0.453392 -0.338532 -0.455407 -0.336517 -0.473878 -0.333495 -0.459101 -0.330808 -0.461116 -0.328121 -0.463467 -0.30965 -0.480931 -0.323419 -0.466826 -0.320061 -0.468841 -0.31771 -0.47052 -0.315023 -0.488656 -0.312672 -0.474214 -0.293529 -0.476229 -0.306963 -0.493693 -0.304276 -0.041309 -0.0315695 -4.3089 7.06216 0.00906783 -0.000671691 0.429211 0.272035 0.443316 0.274722 0.441973 0.293529 0.424173 0.279759 0.438279 0.282782 0.435928 0.285469 0.434584 0.28782 0.416449 0.290507 0.430554 0.30965 0.428875 0.29588 0.42686 0.298567 0.408724 0.301254 0.423166 0.303605 0.421151 0.306291 0.419135 0.308978 0.400664 0.311665 0.415441 0.314352 0.41309 0.316367 0.411411 0.319053 0.408724 0.32174 0.39126 0.340548 0.40503 0.326778 0.402679 0.328793 0.401 0.331816 0.398985 0.334502 0.39697 0.336517 0.378162 0.338868 0.392604 0.341555 0.390589 0.344242 0.388238 0.346593 0.187738 0.170274 5.53944 -6.15538z"/>
   </g>
  </g>
  <polygon class="fil5" points="-0,0 469.529,0 469.529,398.43 -0,398.43 "/>
 </g>
</svg>
