<svg width="28.322mm" height="32.351mm" version="1.1" viewBox="0 0 28.322 32.351" xmlns="http://www.w3.org/2000/svg">
 <g transform="translate(3.8011 -94.712)" shape-rendering="auto">
  <g transform="translate(13.127 -76.708)" stroke-linecap="round" stroke-linejoin="round">
   <path d="m-1.9688 180.17c-4.1803 0-7.5781 3.3978-7.5781 7.5781-1e-7 4.1803 3.3978 7.5781 7.5781 7.5781s7.5781-3.3978 7.5781-7.5781c1e-7 -4.1803-3.3978-7.5781-7.5781-7.5781zm0 0.86523c3.7128 0 6.7129 3.0001 6.7129 6.7129 1e-7 3.7128-3.0001 6.7129-6.7129 6.7129s-6.7129-3.0001-6.7129-6.7129c-1e-7 -3.7128 3.0001-6.7129 6.7129-6.7129z" color="#000000" color-rendering="auto" dominant-baseline="auto" image-rendering="auto" solid-color="#000000" stop-color="#000000" style="font-feature-settings:normal;font-variant-alternates:normal;font-variant-caps:normal;font-variant-east-asian:normal;font-variant-ligatures:normal;font-variant-numeric:normal;font-variant-position:normal;font-variation-settings:normal;inline-size:0;isolation:auto;mix-blend-mode:normal;shape-margin:0;shape-padding:0;text-decoration-color:#000000;text-decoration-line:none;text-decoration-style:solid;text-indent:0;text-orientation:mixed;text-transform:none;white-space:normal"/>
   <path d="m2.5684 184.39a0.5 0.5 0 0 0-0.33203 0.14258l-5.5254 5.3711-2.8867-2.8066a0.5 0.5 0 0 0-0.70703 0.01 0.5 0.5 0 0 0 0.011719 0.70703l3.2344 3.1445a0.50005 0.50005 0 0 0 0.69727 0l5.873-5.709a0.5 0.5 0 0 0 0.00977-0.70703 0.5 0.5 0 0 0-0.375-0.15235z" color="#000000" color-rendering="auto" dominant-baseline="auto" image-rendering="auto" solid-color="#000000" stop-color="#000000" style="font-feature-settings:normal;font-variant-alternates:normal;font-variant-caps:normal;font-variant-east-asian:normal;font-variant-ligatures:normal;font-variant-numeric:normal;font-variant-position:normal;font-variation-settings:normal;inline-size:0;isolation:auto;mix-blend-mode:normal;shape-margin:0;shape-padding:0;text-decoration-color:#000000;text-decoration-line:none;text-decoration-style:solid;text-indent:0;text-orientation:mixed;text-transform:none;white-space:normal"/>
  </g>
  <path d="m2.6074 95.863c-0.61918-0.0732-1.1911 0.37666-1.2645 0.9946l-3.0494 25.688c-0.07335 0.61794 0.37764 1.1869 0.99682 1.2601l20.42 2.4144c0.61917 0.0732 1.189-0.37503 1.2624-0.99297l3.0494-25.688c0.0734-0.61794-0.37555-1.1885-0.99473-1.2617zm-0.08827 0.7435 20.42 2.4144c0.2195 0.02595 0.364 0.21107 0.338 0.43013l-3.0494 25.688c-0.026 0.21905-0.20965 0.36349-0.42914 0.33753l-20.42-2.4144c-0.21949-0.0259-0.36609-0.20943-0.34008-0.42848l3.0494-25.688c0.026-0.21906 0.21172-0.36514 0.43121-0.33918z" color="#000000" color-rendering="auto" dominant-baseline="auto" image-rendering="auto" opacity=".2" solid-color="#000000" stop-color="#000000" style="font-feature-settings:normal;font-variant-alternates:normal;font-variant-caps:normal;font-variant-east-asian:normal;font-variant-ligatures:normal;font-variant-numeric:normal;font-variant-position:normal;font-variation-settings:normal;inline-size:0;isolation:auto;mix-blend-mode:normal;shape-margin:0;shape-padding:0;text-decoration-color:#000000;text-decoration-line:none;text-decoration-style:solid;text-indent:0;text-orientation:mixed;text-transform:none;white-space:normal"/>
  <path d="m17.424 94.712c-0.0778 0.0019-0.1566 0.01171-0.23513 0.02997l-7.291 1.6955 2.2345 0.26407 5.2297-1.2159c0.22836-0.05311 0.4399 0.08014 0.493 0.30851l0.37879 1.6288 0.80822 0.0956-0.44132-1.8981c-0.12783-0.54974-0.63183-0.92183-1.1767-0.90847zm-16.512 3.8153-3.8044 0.8847c-0.62826 0.14611-1.0246 0.78352-0.8785 1.4118l2.9197 12.557 0.26562-2.2381-2.4396-10.492c-0.0531-0.22837 0.07756-0.44143 0.30592-0.49454l3.5352-0.82217zm21.753 14.574-0.26562 2.2381 1.3451 5.7847c0.0531 0.22836-0.0776 0.44143-0.30592 0.49455l-1.835 0.42684-0.0961 0.80616 2.1037-0.48938c0.62827-0.14611 1.0251-0.78354 0.87902-1.4118zm-20.954 11.301 0.40721 1.7513c0.14608 0.62826 0.78354 1.0246 1.4118 0.8785l6.8828-1.6009-2.2345-0.26406-4.8214 1.1214c-0.22836 0.0531-0.4399-0.0801-0.49299-0.30851l-0.34468-1.4821z" color="#000000" color-rendering="auto" dominant-baseline="auto" image-rendering="auto" opacity=".4" solid-color="#000000" stop-color="#000000" style="font-feature-settings:normal;font-variant-alternates:normal;font-variant-caps:normal;font-variant-east-asian:normal;font-variant-ligatures:normal;font-variant-numeric:normal;font-variant-position:normal;font-variation-settings:normal;inline-size:0;isolation:auto;mix-blend-mode:normal;shape-margin:0;shape-padding:0;text-decoration-color:#000000;text-decoration-line:none;text-decoration-style:solid;text-indent:0;text-orientation:mixed;text-transform:none;white-space:normal"/>
 </g>
</svg>
