<?xml version="1.0" encoding="UTF-8"?>
<!DOCTYPE svg PUBLIC "-//W3C//DTD SVG 1.1//EN" "http://www.w3.org/Graphics/SVG/1.1/DTD/svg11.dtd">
<!-- Creator: CorelDRAW -->
<svg xmlns="http://www.w3.org/2000/svg" xml:space="preserve" width="1800px" height="1500px" style="shape-rendering:geometricPrecision; text-rendering:geometricPrecision; image-rendering:optimizeQuality; fill-rule:evenodd; clip-rule:evenodd"
viewBox="0 0 469.529 398.429"
 xmlns:xlink="http://www.w3.org/1999/xlink">
 <defs>
  <style type="text/css">
   <![CDATA[
    .str0 {stroke:#CCCCCC;stroke-width:9.47824}
    .str1 {stroke:white;stroke-width:9.47824}
    .fil7 {fill:none}
    .fil6 {fill:none;fill-rule:nonzero}
    .fil0 {fill:white}
    .fil4 {fill:#F7A605}
    .fil1 {fill:#336699;fill-rule:nonzero}
    .fil3 {fill:#999999;fill-rule:nonzero}
    .fil5 {fill:#CCCCCC;fill-rule:nonzero}
    .fil2 {fill:white;fill-rule:nonzero}
   ]]>
  </style>
   <clipPath id="id0">
    <path d="M-0 0l469.529 0 0 398.429 -469.529 0 0 -398.429z"/>
   </clipPath>
 </defs>
 <g id="Ebene_x0020_1">
  <metadata id="CorelCorpID_0Corel-Layer"/>
  <g>
  </g>
  <g style="clip-path:url(#id0)">
   <g>
    <g id="_168893296">
     <rect id="_170253512" class="fil0 str0" transform="matrix(-0.22765 -1.29107 1.16023 -0.20458 62.6265 389.832)" width="240.781" height="343.973" rx="30.0978" ry="30.0978"/>
     <rect id="_225526736" class="fil0" transform="matrix(0.22765 -1.29107 1.16023 0.20458 7.81252 319.462)" width="240.781" height="343.973" rx="30.0978" ry="30.0978"/>
     <path id="_225526808" class="fil1 str1" d="M8.78572 279.578l41.0172 -232.621 0 -0.000671691 0.0933651 -0.527949c2.14639,-12.1758 8.6178,-22.4902 17.3132,-29.2968 8.86834,-6.94227 20.0366,-10.2534 31.3636,-8.25576l328.719 57.9623 0.000335846 0 0.528285 0.0930293c11.3502,2.0013 20.7254,8.93518 26.6846,18.4927 5.74733,9.21695 8.30546,20.8973 6.32901,32.8816l0 0.0181357 -0.0933651 0.527949 -41.0172 232.621 0 0.000671691 -0.0930293 0.527614c-2.14639,12.1758 -8.6178,22.4902 -17.3132,29.2968 -8.86834,6.94227 -20.0369,10.2534 -31.364,8.2561l-329.247 -58.055c-11.3509,-2.00198 -20.7264,-8.93551 -26.6856,-18.493 -5.83364,-9.357 -8.3817,-21.253 -6.23531,-33.4277z"/>
     <path id="_225526880" class="fil2" d="M61.6529 48.4813l-41.1105 233.149c-1.62113,9.19646 0.26196,18.1169 4.60176,25.0773 4.2152,6.75957 10.7598,11.6488 18.6146,13.0338l329.247 58.055c7.87894,1.38939 15.7132,-0.964549 21.9868,-5.87596 6.44421,-5.04407 11.2549,-12.7705 12.8783,-21.9593l0.00235092 -0.013098 41.0175 -232.621 0 -0.000335846 0.0930293 -0.528285c1.62146,-9.19646 -0.26196,-18.1162 -4.60243,-25.0769 -4.21218,-6.75587 -10.7528,-11.6441 -18.6025,-13.0315l-0.0114188 -0.00201507 -329.247 -58.0553c-7.87894,-1.38939 -15.7135,0.964885 -21.9868,5.87596 -6.44387,5.04407 -11.2552,12.7702 -12.8783,21.9589l-0.00235092 0.0134338z"/>
     <path id="_171865728" class="fil3" d="M8.78572 279.578l41.0172 -232.621 0 -0.000671691 0.0933651 -0.527949c2.14639,-12.1758 8.6178,-22.4902 17.3132,-29.2968 8.86834,-6.94227 20.0366,-10.2534 31.3636,-8.25576l328.719 57.9623 0.000335846 0 0.528285 0.0930293c11.3502,2.0013 20.7254,8.93518 26.6846,18.4927 5.74733,9.21695 8.30546,20.8973 6.32901,32.8816l0 0.0181357 -0.0933651 0.527949 -41.0172 232.621 0 0.000671691 -0.0930293 0.527614c-2.14639,12.1758 -8.6178,22.4902 -17.3132,29.2968 -8.86834,6.94227 -20.0369,10.2534 -31.364,8.2561l-329.247 -58.055c-11.3509,-2.00198 -20.7264,-8.93551 -26.6856,-18.493 -5.83364,-9.357 -8.3817,-21.253 -6.23531,-33.4277z"/>
     <path id="_173968200" class="fil2" d="M61.6529 48.4813l-41.1105 233.149c-1.62113,9.19646 0.26196,18.1169 4.60176,25.0773 4.2152,6.75957 10.7598,11.6488 18.6146,13.0338l329.247 58.055c7.87894,1.38939 15.7132,-0.964549 21.9868,-5.87596 6.44421,-5.04407 11.2549,-12.7705 12.8783,-21.9593l0.00235092 -0.013098 41.0175 -232.621 0 -0.000335846 0.0930293 -0.528285c1.62146,-9.19646 -0.26196,-18.1162 -4.60243,-25.0769 -4.21218,-6.75587 -10.7528,-11.6441 -18.6025,-13.0315l-0.0114188 -0.00201507 -329.247 -58.0553c-7.87894,-1.38939 -15.7135,0.964885 -21.9868,5.87596 -6.44387,5.04407 -11.2552,12.7702 -12.8783,21.9589l-0.00235092 0.0134338z"/>
    </g>
    <path class="fil4" d="M234.765 199.215l-45.2707 -78.421c9.13971,-5.2711 19.1493,-8.92208 29.5464,-10.7555 49.2424,-8.68262 96.2181,24.2098 104.901,73.4521 8.68295,49.2424 -24.2098,96.2181 -73.4521,104.901 -15.6447,2.75864 -31.7666,1.34674 -46.6886,-4.08187l30.9643 -85.0946z"/>
    <polygon class="fil5" points="170.462,263.376 170.572,263.487 170.962,263.868 171.353,264.246 171.748,264.637 172.143,265.011 172.541,265.382 172.94,265.751 173.342,266.118 173.745,266.482 174.153,266.859 174.561,267.219 174.971,267.576 175.382,267.93 175.796,268.282 176.212,268.632 176.631,268.995 177.05,269.339 177.471,269.682 177.895,270.022 178.32,270.359 178.747,270.694 179.175,271.026 179.607,271.357 180.039,271.684 180.473,272.009 180.91,272.331 181.363,272.649 181.805,272.982 182.247,273.297 182.69,273.609 183.135,273.919 183.582,274.226 184.03,274.531 184.481,274.833 184.949,275.13 185.402,275.427 185.857,275.721 186.314,276.013 186.773,276.302 187.234,276.588 187.709,276.854 188.173,277.136 188.638,277.414 189.104,277.69 189.573,277.963 190.058,278.231 190.402,278.428 194.269,271.466 193.961,271.296 193.542,271.051 193.108,270.804 192.676,270.556 192.246,270.305 191.818,270.05 191.404,269.776 190.979,269.516 190.555,269.255 190.133,268.99 189.713,268.722 189.294,268.452 188.892,268.177 188.477,267.902 188.064,267.625 187.651,267.344 187.241,267.061 186.833,266.776 186.427,266.488 186.024,266.213 185.636,265.918 185.235,265.622 184.835,265.324 184.438,265.024 184.042,264.721 183.648,264.415 183.257,264.107 182.866,263.796 182.478,263.483 182.092,263.168 181.707,262.85 181.327,262.545 180.947,262.222 180.568,261.897 180.191,261.569 179.816,261.239 179.444,260.907 179.076,260.587 178.707,260.25 178.34,259.91 177.976,259.568 177.614,259.224 177.253,258.877 176.897,258.543 176.541,258.192 176.187,257.838 176.076,257.727 "/>
    <polygon class="fil5" points="146.335,220.168 146.429,220.563 146.564,221.121 146.704,221.693 146.864,222.26 147.008,222.813 147.158,223.38 147.309,223.929 147.465,224.493 147.64,225.053 147.801,225.597 147.967,226.156 148.133,226.697 148.32,227.25 148.495,227.803 148.672,228.339 148.868,228.888 149.05,229.42 149.237,229.967 149.442,230.494 149.635,231.037 149.832,231.578 150.044,232.1 150.246,232.638 150.465,233.156 150.673,233.69 150.883,234.207 151.112,234.735 151.327,235.249 151.563,235.773 151.784,236.284 152.025,236.804 152.254,237.326 152.498,237.828 152.733,238.345 152.983,238.843 153.224,239.358 153.48,239.852 153.726,240.362 153.988,240.853 154.238,241.359 154.506,241.846 154.763,242.349 155.035,242.832 155.298,243.33 155.379,243.457 162.324,239.552 162.278,239.452 162.024,239.016 161.786,238.56 161.537,238.119 161.305,237.659 161.062,237.215 160.836,236.751 160.598,236.302 160.377,235.835 160.145,235.383 159.929,234.912 159.703,234.456 159.493,233.98 159.272,233.521 159.07,233.058 158.853,232.579 158.657,232.112 158.446,231.629 158.256,231.159 158.05,230.673 157.85,230.201 157.666,229.709 157.472,229.234 157.294,228.738 157.106,228.26 156.921,227.778 156.752,227.278 156.573,226.793 156.395,226.291 156.238,225.801 156.065,225.296 155.899,224.804 155.75,224.309 155.588,223.799 155.43,223.303 155.274,222.789 155.138,222.287 154.99,221.785 154.843,221.267 154.701,220.762 154.561,220.24 154.441,219.73 154.309,219.22 154.178,218.693 154.084,218.298 "/>
    <polygon class="fil5" points="148.474,170.726 148.339,171.138 148.164,171.653 147.995,172.185 147.842,172.701 147.676,173.22 147.515,173.755 147.371,174.274 147.217,174.811 147.079,175.333 146.93,175.872 146.782,176.397 146.655,176.937 146.514,177.464 146.391,177.99 146.258,178.535 146.141,179.063 146.014,179.609 145.888,180.141 145.782,180.687 145.662,181.221 145.563,181.769 145.449,182.305 145.356,182.855 145.249,183.392 145.162,183.943 145.076,184.48 144.98,185.035 144.901,185.574 144.811,186.13 144.738,186.67 144.655,187.229 144.588,187.77 144.527,188.328 144.451,188.873 144.396,189.432 144.327,189.979 144.279,190.539 144.231,191.085 144.174,191.649 144.135,192.212 144.097,192.759 144.05,193.325 144.019,193.874 143.993,194.439 143.969,194.99 143.945,195.3 151.917,195.604 151.917,195.359 151.946,194.84 151.98,194.337 152.015,193.819 152.04,193.319 152.081,192.802 152.128,192.301 152.163,191.803 152.214,191.289 152.271,190.79 152.313,190.279 152.376,189.781 152.425,189.271 152.495,188.776 152.565,188.265 152.626,187.772 152.703,187.263 152.769,186.772 152.853,186.265 152.926,185.776 153.016,185.27 153.111,184.78 153.192,184.278 153.293,183.79 153.38,183.29 153.487,182.804 153.581,182.304 153.694,181.82 153.793,181.323 153.898,180.843 154.019,180.346 154.129,179.867 154.256,179.372 154.371,178.88 154.506,178.402 154.626,177.912 154.752,177.438 154.894,176.948 155.026,176.477 155.174,175.989 155.312,175.519 155.451,175.035 155.608,174.551 155.755,174.084 155.903,173.604 156.038,173.192 "/>
    <polygon class="fil5" points="176.254,129.747 175.955,129.999 175.527,130.359 175.117,130.72 174.709,131.082 174.303,131.447 173.884,131.817 173.482,132.187 173.082,132.543 172.685,132.917 172.275,133.294 171.883,133.673 171.493,134.054 171.105,134.436 170.704,134.823 170.322,135.21 169.941,135.599 169.563,135.991 169.172,136.386 168.798,136.781 168.426,137.179 168.058,137.578 167.691,137.98 167.327,138.383 166.95,138.791 166.59,139.199 166.233,139.608 165.879,140.02 165.527,140.433 165.177,140.849 164.814,141.268 164.47,141.688 164.127,142.109 163.787,142.532 163.45,142.957 163.115,143.384 162.782,143.813 162.452,144.244 162.125,144.677 161.8,145.111 161.478,145.547 161.159,146.001 160.827,146.442 160.512,146.884 160.199,147.327 159.89,147.772 159.582,148.219 159.518,148.313 166.146,152.76 166.184,152.701 166.465,152.289 166.747,151.879 167.033,151.471 167.321,151.064 167.596,150.661 167.891,150.274 168.186,149.872 168.485,149.473 168.785,149.076 169.088,148.68 169.394,148.286 169.702,147.894 170.012,147.504 170.326,147.116 170.641,146.729 170.959,146.345 171.264,145.965 171.587,145.584 171.912,145.206 172.24,144.829 172.57,144.454 172.902,144.082 173.222,143.713 173.559,143.345 173.899,142.978 174.24,142.614 174.585,142.251 174.932,141.891 175.265,141.535 175.617,141.178 175.971,140.824 176.327,140.473 176.67,140.125 177.031,139.777 177.393,139.431 177.759,139.088 178.111,138.749 178.481,138.41 178.851,138.058 179.225,137.723 179.586,137.393 179.966,137.063 180.346,136.735 180.73,136.41 181.1,136.089 181.399,135.837 "/>
    <polyline class="fil6" points="239.829,108.656 239.37,108.631 238.819,108.606 238.251,108.572 237.684,108.556 237.133,108.542 236.563,108.517 236.01,108.51 235.441,108.507 234.887,108.506 234.317,108.511 233.745,108.503 233.19,108.512 232.618,108.527 232.062,108.542 231.49,108.564 230.917,108.589 230.358,108.599 229.785,108.631 229.227,108.664 228.652,108.703 228.078,108.744 227.519,108.788 226.944,108.837 226.369,108.889 225.809,108.943 225.233,109.003 224.672,109.064 224.096,109.13 223.519,109.2 222.958,109.271 222.396,109.346 221.834,109.425 221.257,109.509 220.679,109.596 220.117,109.686 219.539,109.78 218.976,109.877 218.398,109.979 217.819,110.084 217.257,110.191 216.678,110.304 216.1,110.42 215.536,110.538 214.957,110.662 216.677,118.462 216.143,118.568 215.629,118.69 215.116,118.815 214.589,118.946 214.079,119.078 213.569,119.198 213.047,119.338 212.542,119.48 212.023,119.627 211.522,119.775 211.02,119.911 210.506,120.068 210.01,120.225 209.5,120.388 209.005,120.536 208.513,120.703 208.008,120.875 207.518,121.033 207.016,121.211 206.531,121.39 206.031,121.559 205.549,121.744 205.07,121.932 204.575,122.11 204.099,122.304 203.608,122.488 203.136,122.688 202.65,122.893 202.179,123.084 201.697,123.295 201.23,123.491 200.751,123.708 200.705,123.722 197.422,116.475 197.525,116.421 198.035,116.201 198.56,115.965 199.073,115.75 199.602,115.52 200.119,115.311 200.653,115.103 201.171,114.884 201.709,114.682 202.231,114.469 202.772,114.273 203.315,114.079 203.842,113.875 204.389,113.688 204.921,113.506 205.469,113.309 206.005,113.133 206.559,112.958 207.112,112.771 207.653,112.604 208.212,112.438 208.756,112.278 209.316,112.103 209.879,111.947 210.429,111.796 210.995,111.646 211.549,111.501 212.116,111.342 212.688,111.202 213.246,111.067 213.82,110.933 214.397,110.803 214.957,110.662 "/>
   </g>
  </g>
  <polygon class="fil7" points="-0,0 469.529,0 469.529,398.429 -0,398.429 "/>
 </g>
</svg>
