<?xml version="1.0" encoding="UTF-8"?>
<!DOCTYPE svg PUBLIC "-//W3C//DTD SVG 1.1//EN" "http://www.w3.org/Graphics/SVG/1.1/DTD/svg11.dtd">
<!-- Creator: CorelDRAW -->
<svg xmlns="http://www.w3.org/2000/svg" xml:space="preserve" width="1200px" height="1200px" style="shape-rendering:geometricPrecision; text-rendering:geometricPrecision; image-rendering:optimizeQuality; fill-rule:evenodd; clip-rule:evenodd"
viewBox="0 0 617.647 524.118"
 xmlns:xlink="http://www.w3.org/1999/xlink">
 <defs>
  <style type="text/css">
   <![CDATA[
    .str3 {stroke:black;stroke-width:13.7469}
    .str2 {stroke:black;stroke-width:13.7469;stroke-linecap:round;stroke-linejoin:round}
    .str0 {stroke:#CCCCCC;stroke-width:15.7109}
    .str1 {stroke:white;stroke-width:15.7109}
    .str4 {stroke:black;stroke-width:13.7469;stroke-dasharray:27.493784 41.240675}
    .fil4 {fill:none}
    .fil0 {fill:white}
    .fil1 {fill:#336699;fill-rule:nonzero}
    .fil3 {fill:#999999;fill-rule:nonzero}
    .fil2 {fill:white;fill-rule:nonzero}
   ]]>
  </style>
   <clipPath id="id0">
    <path d="M-0 0l617.647 0 0 524.118 -617.647 0 0 -524.118z"/>
   </clipPath>
 </defs>
 <g id="Ebene_x0020_1">
  <metadata id="CorelCorpID_0Corel-Layer"/>
  <g>
  </g>
  <g style="clip-path:url(#id0)">
   <g>
    <g id="_162870608">
     <rect id="_162869912" class="fil0 str0" transform="matrix(-0.180664 -1.0246 0.920765 -0.162356 82.3827 512.809)" width="399.113" height="570.161" rx="49.8894" ry="49.8894"/>
     <rect id="_162870560" class="fil0" transform="matrix(0.180664 -1.0246 0.920765 0.162356 10.2772 420.24)" width="399.113" height="570.161" rx="49.8894" ry="49.8894"/>
     <path id="_162870440" class="fil1 str1" d="M11.5574 367.773l53.9566 -306.003 0 -0.00055669 0.122472 -0.694749c2.82353,-16.0165 11.3364,-29.5847 22.7747,-38.5385 11.666,-9.13249 26.3576,-13.488 41.2579,-10.8605l432.417 76.247 0.00055669 0 0.694749 0.122472c14.931,2.63258 27.2633,11.7539 35.1026,24.3262 7.5604,12.1247 10.9256,27.4899 8.32529,43.2548l0 0.0239377 -0.122472 0.694192 -53.9566 306.003 0 0.00111338 -0.122472 0.694192c-2.82353,16.0165 -11.3364,29.5847 -22.7747,38.5385 -11.666,9.13249 -26.3576,13.488 -41.2579,10.8605l-433.112 -76.3689c-14.9315,-2.63314 -27.2644,-11.7539 -35.1037,-24.3268 -7.67397,-12.3084 -11.0258,-27.9575 -8.20226,-43.9729z"/>
     <path id="_162870248" class="fil2" d="M81.1019 63.7755l-54.079 306.698c-2.13268,12.0974 0.344591,23.8319 6.05344,32.9883 5.54463,8.892 14.1538,15.3234 24.4865,17.1455l433.112 76.3689c10.3644,1.82761 20.6699,-1.2687 28.9228,-7.72963 8.47671,-6.63518 14.8052,-16.7992 16.9406,-28.8866l0.00334014 -0.0172574 53.9566 -306.003 0 -0.00055669 0.122472 -0.694749c2.13323,-12.0974 -0.344591,-23.8313 -6.054,-32.9878 -5.54129,-8.88699 -14.1449,-15.3173 -24.471,-17.1421l-0.0150306 -0.00278345 -433.112 -76.3695c-10.3644,-1.82761 -20.6704,1.26925 -28.9228,7.72963 -8.47671,6.63518 -14.8057,16.7987 -16.9406,28.8861l-0.00334014 0.0178141z"/>
     <path id="_162870104" class="fil3" d="M11.5574 367.773l53.9566 -306.003 0 -0.00055669 0.122472 -0.694749c2.82353,-16.0165 11.3364,-29.5847 22.7747,-38.5385 11.666,-9.13249 26.3576,-13.488 41.2579,-10.8605l432.417 76.247 0.00055669 0 0.694749 0.122472c14.931,2.63258 27.2633,11.7539 35.1026,24.3262 7.5604,12.1247 10.9256,27.4899 8.32529,43.2548l0 0.0239377 -0.122472 0.694192 -53.9566 306.003 0 0.00111338 -0.122472 0.694192c-2.82353,16.0165 -11.3364,29.5847 -22.7747,38.5385 -11.666,9.13249 -26.3576,13.488 -41.2579,10.8605l-433.112 -76.3689c-14.9315,-2.63314 -27.2644,-11.7539 -35.1037,-24.3268 -7.67397,-12.3084 -11.0258,-27.9575 -8.20226,-43.9729z"/>
     <path id="_162870056" class="fil2" d="M81.1019 63.7755l-54.079 306.698c-2.13268,12.0974 0.344591,23.8319 6.05344,32.9883 5.54463,8.892 14.1538,15.3234 24.4865,17.1455l433.112 76.3689c10.3644,1.82761 20.6699,-1.2687 28.9228,-7.72963 8.47671,-6.63518 14.8052,-16.7992 16.9406,-28.8866l0.00334014 -0.0172574 53.9566 -306.003 0 -0.00055669 0.122472 -0.694749c2.13323,-12.0974 -0.344591,-23.8313 -6.054,-32.9878 -5.54129,-8.88699 -14.1449,-15.3173 -24.471,-17.1421l-0.0150306 -0.00278345 -433.112 -76.3695c-10.3644,-1.82761 -20.6704,1.26925 -28.9228,7.72963 -8.47671,6.63518 -14.8057,16.7987 -16.9406,28.8861l-0.00334014 0.0178141z"/>
    </g>
    <g id="_162872024">
     <polyline id="_162871448" class="fil4 str2" points="249.703,259.407 293.821,299.996 367.938,224.113 "/>
     <path id="_162872144" class="fil4 str3" d="M249.269 158.895c12.0228,-6.93413 25.1902,-11.7367 38.8675,-14.1483 64.7764,-11.4222 126.571,31.8471 137.992,96.6235 11.4222,64.7764 -31.8471,126.571 -96.6235,137.992 -20.5797,3.62906 -41.7873,1.77139 -61.4168,-5.36983"/>
     <path id="_162872096" class="fil4 str4" d="M268.088 373.992c-39.9831,-14.5385 -69.1865,-49.3489 -76.5754,-91.2537 -8.69493,-49.3088 14.3977,-98.8185 57.756,-123.844"/>
    </g>
   </g>
  </g>
  <polygon class="fil4" points="-0,0 617.647,0 617.647,524.118 -0,524.118 "/>
 </g>
</svg>
