<?xml version="1.0" encoding="UTF-8"?>
<!DOCTYPE svg PUBLIC "-//W3C//DTD SVG 1.1//EN" "http://www.w3.org/Graphics/SVG/1.1/DTD/svg11.dtd">
<!-- Creator: CorelDRAW -->
<svg xmlns="http://www.w3.org/2000/svg" xml:space="preserve" width="24px" height="24px" style="shape-rendering:geometricPrecision; text-rendering:geometricPrecision; image-rendering:optimizeQuality; fill-rule:evenodd; clip-rule:evenodd"
viewBox="0 0 3.37523 3.37523"
 xmlns:xlink="http://www.w3.org/1999/xlink">
 <defs>
  <style type="text/css">
   <![CDATA[
    .str0 {stroke:black;stroke-width:0.00181781}
    .fil7 {fill:none}
    .fil0 {fill:none;fill-rule:nonzero}
    .fil2 {fill:url(#id3)}
    .fil5 {fill:url(#id4)}
    .fil3 {fill:url(#id5);fill-rule:nonzero}
    .fil1 {fill:url(#id6);fill-rule:nonzero}
    .fil6 {fill:url(#id7);fill-rule:nonzero}
    .fil4 {fill:url(#id8);fill-rule:nonzero}
    .fil9 {fill:url(#id9);fill-rule:nonzero}
    .fil8 {fill:url(#id10);fill-rule:nonzero}
   ]]>
  </style>
   <clipPath id="id0">
    <path d="M-0 0l3.37523 0 0 3.37523 -3.37523 0 0 -3.37523z"/>
   </clipPath>
    <clipPath id="id1">
     <path d="M0.138088 0.619495l1.59604 0 -0.730617 1.2392 0.730617 0.00429721 -0.18687 0.937029 -1.40917 0.00973829 0 -2.19026z"/>
    </clipPath>
    <clipPath id="id2">
     <path d="M-0 0l3.37523 0 0 3.37523 -3.37523 0 0 -3.37523z"/>
    </clipPath>
  <linearGradient id="id3" gradientUnits="userSpaceOnUse" x1="1.68761" y1="1.02505" x2="1.68761" y2="2.35018">
   <stop offset="0" style="stop-color:#94C156"/>
   <stop offset="1" style="stop-color:#71AAA1"/>
  </linearGradient>
  <linearGradient id="id4" gradientUnits="userSpaceOnUse" x1="1.68761" y1="1.02505" x2="1.68761" y2="2.35018">
   <stop offset="0" style="stop-color:#EF763B"/>
   <stop offset="1" style="stop-color:#DD4814"/>
  </linearGradient>
  <linearGradient id="id5" gradientUnits="userSpaceOnUse" x1="1.68761" y1="0.706917" x2="1.68761" y2="2.6683">
   <stop offset="0" style="stop-color:#ACCF7B"/>
   <stop offset="1" style="stop-color:#14897A"/>
  </linearGradient>
  <linearGradient id="id6" gradientUnits="userSpaceOnUse" x1="1.68761" y1="0.706917" x2="1.68761" y2="2.6683">
   <stop offset="0" style="stop-color:#DBE8C1"/>
   <stop offset="1" style="stop-color:#ACCF7B"/>
  </linearGradient>
  <linearGradient id="id7" gradientUnits="userSpaceOnUse" x1="1.68761" y1="0.706919" x2="1.68761" y2="2.66831">
   <stop offset="0" style="stop-color:#DD4814"/>
   <stop offset="1" style="stop-color:#A71E49"/>
  </linearGradient>
  <linearGradient id="id8" gradientUnits="userSpaceOnUse" x1="1.68761" y1="0.706919" x2="1.68761" y2="2.66831">
   <stop offset="0" style="stop-color:#F49C6A"/>
   <stop offset="1" style="stop-color:#EC6228"/>
  </linearGradient>
  <linearGradient id="id9" gradientUnits="userSpaceOnUse" x1="1.68762" y1="0.323919" x2="1.68762" y2="3.0511">
   <stop offset="0" style="stop-color:#FEB943"/>
   <stop offset="1" style="stop-color:#F6A802"/>
  </linearGradient>
  <linearGradient id="id10" gradientUnits="userSpaceOnUse" x1="1.68762" y1="0.323919" x2="1.68762" y2="3.0511">
   <stop offset="0" style="stop-color:#FFDDA8"/>
   <stop offset="1" style="stop-color:#FCCB78"/>
  </linearGradient>
 </defs>
<symbol id="Symbol1" viewBox="-11.7115 -37.098 5.54413 0.00181781">
 <line class="fil0 str0" x1="-11.7115" y1="-37.0971" x2="-6.16733" y2= "-37.0971" />
</symbol>
<symbol id="Fm0-19459-0" viewBox="-11.7115 -37.098 5.54413 0.00181781">
 <line class="fil0 str0" x1="-11.7115" y1="-37.0971" x2="-6.16733" y2= "-37.0971" />
</symbol>
 <g id="Ebene_x0020_1">
  <metadata id="CorelCorpID_0Corel-Layer"/>
  <g>
  </g>
  <g style="clip-path:url(#id0)">
   <g>
    <g id="_185633800">
     <path id="_185634568" class="fil1" d="M0.562224 0.706917l2.25078 0c0.0842027,0 0.160693,0.034388 0.216093,0.089788 0.0554021,0.0554 0.0897901,0.13189 0.0897901,0.216095l0 1.34962c0,0.0842047 -0.034388,0.160695 -0.0897901,0.216095 -0.0554,0.0554 -0.13189,0.089788 -0.216093,0.089788l-2.25078 0c-0.0842006,0 -0.160691,-0.034388 -0.216095,-0.089788 -0.0554,-0.0554 -0.089788,-0.131897 -0.089788,-0.216095l0 -1.34962c0,-0.0842047 0.034388,-0.160695 0.089788,-0.216095 0.0554,-0.0554 0.13189,-0.089788 0.216095,-0.089788z"/>
     <polygon id="_185634256" class="fil2" points="0.57447,1.02505 2.80076,1.02505 2.80076,2.35018 0.57447,2.35018 "/>
     <path id="_185633776" class="fil3" d="M0.562224 0.706917l2.25078 0c0.0842027,0 0.160693,0.034388 0.216093,0.089788 0.0554021,0.0554 0.0897901,0.13189 0.0897901,0.216095l0 1.34962c0,0.0842047 -0.034388,0.160695 -0.0897901,0.216095 -0.0554,0.0554 -0.13189,0.089788 -0.216093,0.089788l-2.25078 0c-0.0842006,0 -0.160691,-0.034388 -0.216095,-0.089788 -0.0554,-0.0554 -0.089788,-0.131897 -0.089788,-0.216095l0 -1.34962c0,-0.0842047 0.034388,-0.160695 0.089788,-0.216095 0.0554,-0.0554 0.13189,-0.089788 0.216095,-0.089788zm2.25078 0.159065l-2.25078 0c-0.0402907,0 -0.076983,0.0165438 -0.10363,0.0431906 -0.0266448,0.0266448 -0.0431885,0.063339 -0.0431885,0.103628l0 1.34962c0,0.0402887 0.0165438,0.076983 0.0431885,0.103628 0.026651,0.0266489 0.063339,0.0431906 0.10363,0.0431906l2.25078 0c0.0402887,0 0.076983,-0.0165458 0.103628,-0.0431906 0.0266448,-0.0266448 0.0431906,-0.063339 0.0431906,-0.103628l0 -1.34962c0,-0.0402887 -0.0165458,-0.076983 -0.0431906,-0.103628 -0.0266448,-0.0266468 -0.063339,-0.0431906 -0.103628,-0.0431906z"/>
    </g>
    <g>
    </g>
   </g>
   <g style="clip-path:url(#id1)">
    <g>
     <g id="_185406072">
      <path id="_185406576" class="fil4" d="M0.562222 0.706919l2.25078 0c0.0842027,0 0.160693,0.034388 0.216093,0.089788 0.0554021,0.0554 0.0897901,0.13189 0.0897901,0.216095l0 1.34962c0,0.0842047 -0.034388,0.160695 -0.0897901,0.216095 -0.0554,0.0554 -0.13189,0.089788 -0.216093,0.089788l-2.25078 0c-0.0842006,0 -0.160691,-0.034388 -0.216095,-0.089788 -0.0554,-0.0554 -0.089788,-0.131897 -0.089788,-0.216095l0 -1.34962c0,-0.0842047 0.034388,-0.160695 0.089788,-0.216095 0.0554,-0.0554 0.13189,-0.089788 0.216095,-0.089788z"/>
      <polygon id="_185406168" class="fil5" points="0.574468,1.02505 2.80076,1.02505 2.80076,2.35018 0.574468,2.35018 "/>
      <path id="_185406528" class="fil6" d="M0.562222 0.706919l2.25078 0c0.0842027,0 0.160693,0.034388 0.216093,0.089788 0.0554021,0.0554 0.0897901,0.13189 0.0897901,0.216095l0 1.34962c0,0.0842047 -0.034388,0.160695 -0.0897901,0.216095 -0.0554,0.0554 -0.13189,0.089788 -0.216093,0.089788l-2.25078 0c-0.0842006,0 -0.160691,-0.034388 -0.216095,-0.089788 -0.0554,-0.0554 -0.089788,-0.131897 -0.089788,-0.216095l0 -1.34962c0,-0.0842047 0.034388,-0.160695 0.089788,-0.216095 0.0554,-0.0554 0.13189,-0.089788 0.216095,-0.089788zm2.25078 0.159065l-2.25078 0c-0.0402907,0 -0.076983,0.0165438 -0.10363,0.0431906 -0.0266448,0.0266448 -0.0431885,0.063339 -0.0431885,0.103628l0 1.34962c0,0.0402887 0.0165438,0.076983 0.0431885,0.103628 0.026651,0.0266489 0.063339,0.0431906 0.10363,0.0431906l2.25078 0c0.0402887,0 0.076983,-0.0165458 0.103628,-0.0431906 0.0266448,-0.0266448 0.0431906,-0.063339 0.0431906,-0.103628l0 -1.34962c0,-0.0402887 -0.0165458,-0.076983 -0.0431906,-0.103628 -0.0266448,-0.0266468 -0.063339,-0.0431906 -0.103628,-0.0431906z"/>
     </g>
    </g>
   </g>
   <g style="clip-path:url(#id2)">
    <polygon class="fil7" points="0.138088,0.619495 1.73413,0.619495 1.00351,1.85869 1.73413,1.86299 1.54726,2.80002 0.138088,2.80976 "/>
    <g>
     <path class="fil8" d="M0.954704 1.84003l0.85512 -1.48112c0.0113335,-0.0221497 0.0363954,-0.0349878 0.0619644,-0.0297734 0.0307606,0.00627372 0.0506102,0.0363006 0.0443365,0.0670612l-0.21645 1.05367 0.671494 0 0 0.000127783c0.00969707,-8.24405e-006 0.019524,0.00246085 0.0285182,0.00767109 0.0271909,0.0157503 0.0364676,0.0505628 0.0207173,0.0777538l-0.856495 1.48349 -3.29762e-005 -1.85491e-005c-0.0119065,0.0205607 -0.0360038,0.0322074 -0.0605649,0.0271992 -0.0307586,-0.00627372 -0.0506082,-0.0363006 -0.0443365,-0.0670612l0.216448 -1.05367 -0.671486 0 0 -0.000239077c-0.00961256,1.03051e-005 -0.0193612,-0.00242375 -0.0282936,-0.0075598 -0.0271909,-0.0156266 -0.0365665,-0.0503402 -0.0209399,-0.0775291z"/>
     <path class="fil9" d="M1.73413 0.717167l-0.631688 1.09412 0.642733 0c0.0314964,0 0.0570344,0.025538 0.0570344,0.0570344 0,0.00559359 -0.000809978,0.0109955 -0.0023104,0.0161048l-0.158848 0.77329 0.631496 -1.09378 -0.642614 0c-0.0314964,0 -0.0570344,-0.025538 -0.0570344,-0.0570344 0,-0.00559359 0.000809978,-0.0109996 0.0023104,-0.0161089l0.158921 -0.773626zm-0.779421 1.12286l0.85512 -1.48112c0.0113335,-0.0221497 0.0363954,-0.0349878 0.0619644,-0.0297734 0.0307606,0.00627372 0.0506102,0.0363006 0.0443365,0.0670612l-0.21645 1.05367 0.671494 0 0 0.000127783c0.00969707,-8.24405e-006 0.019524,0.00246085 0.0285182,0.00767109 0.0271909,0.0157503 0.0364676,0.0505628 0.0207173,0.0777538l-0.856495 1.48349 -3.29762e-005 -1.85491e-005c-0.0119065,0.0205607 -0.0360038,0.0322074 -0.0605649,0.0271992 -0.0307586,-0.00627372 -0.0506082,-0.0363006 -0.0443365,-0.0670612l0.216448 -1.05367 -0.671486 0 0 -0.000239077c-0.00961256,1.03051e-005 -0.0193612,-0.00242375 -0.0282936,-0.0075598 -0.0271909,-0.0156266 -0.0365665,-0.0503402 -0.0209399,-0.0775291z"/>
    </g>
   </g>
  </g>
  <polygon class="fil7" points="-0,0 3.37523,0 3.37523,3.37523 -0,3.37523 "/>
 </g>
</svg>
