<?xml version="1.0" encoding="UTF-8"?>
<!DOCTYPE svg PUBLIC "-//W3C//DTD SVG 1.1//EN" "http://www.w3.org/Graphics/SVG/1.1/DTD/svg11.dtd">
<!-- Creator: CorelDRAW -->
<svg xmlns="http://www.w3.org/2000/svg" xml:space="preserve" width="24px" height="24px" style="shape-rendering:geometricPrecision; text-rendering:geometricPrecision; image-rendering:optimizeQuality; fill-rule:evenodd; clip-rule:evenodd"
viewBox="0 0 8.53288 8.53288"
 xmlns:xlink="http://www.w3.org/1999/xlink">
 <defs>
  <style type="text/css">
   <![CDATA[
    .fil15 {fill:none}
    .fil10 {fill:none;fill-rule:nonzero}
    .fil1 {fill:url(#id1)}
    .fil6 {fill:url(#id2)}
    .fil14 {fill:url(#id3);fill-rule:nonzero}
    .fil13 {fill:url(#id4);fill-rule:nonzero}
    .fil2 {fill:url(#id5);fill-rule:nonzero}
    .fil12 {fill:url(#id6);fill-rule:nonzero}
    .fil11 {fill:url(#id7);fill-rule:nonzero}
    .fil0 {fill:url(#id8);fill-rule:nonzero}
    .fil7 {fill:url(#id9);fill-rule:nonzero}
    .fil5 {fill:url(#id10);fill-rule:nonzero}
    .fil4 {fill:url(#id11);fill-rule:nonzero}
    .fil3 {fill:url(#id12);fill-rule:nonzero}
    .fil8 {fill:url(#id13);fill-rule:nonzero}
    .fil9 {fill:url(#id14);fill-rule:nonzero}
   ]]>
  </style>
   <clipPath id="id0">
    <path d="M-0 0l8.53288 0 0 8.53288 -8.53288 0 0 -8.53288z"/>
   </clipPath>
  <linearGradient id="id1" gradientUnits="userSpaceOnUse" x1="4.79514" y1="1.36739" x2="4.79514" y2="3.75773">
   <stop offset="0" style="stop-color:#B7E710"/>
   <stop offset="1" style="stop-color:#94C60D"/>
  </linearGradient>
  <linearGradient id="id2" gradientUnits="userSpaceOnUse" x1="3.62043" y1="5.54449" x2="3.62043" y2="7.72656">
   <stop offset="0" style="stop-color:#F1721E"/>
   <stop offset="1" style="stop-color:#EA5B06"/>
  </linearGradient>
  <linearGradient id="id3" gradientUnits="userSpaceOnUse" x1="1.37241" y1="2.03697" x2="1.37241" y2="5.17213">
   <stop offset="0" style="stop-color:#78A1F0"/>
   <stop offset="1" style="stop-color:#6D90D5"/>
  </linearGradient>
  <linearGradient id="id4" gradientUnits="userSpaceOnUse" xlink:href="#id3" x1="6.98926" y1="4.18006" x2="6.98926" y2="7.1621">
  </linearGradient>
  <linearGradient id="id5" gradientUnits="userSpaceOnUse" x1="4.79514" y1="0.793527" x2="4.79514" y2="4.33159">
   <stop offset="0" style="stop-color:#94C50E"/>
   <stop offset="1" style="stop-color:#74A038"/>
  </linearGradient>
  <linearGradient id="id6" gradientUnits="userSpaceOnUse" x1="1.37241" y1="2.03697" x2="1.37241" y2="5.17213">
   <stop offset="0" style="stop-color:#C7E0F7"/>
   <stop offset="1" style="stop-color:#84B4FB"/>
  </linearGradient>
  <linearGradient id="id7" gradientUnits="userSpaceOnUse" xlink:href="#id6" x1="6.98926" y1="4.18005" x2="6.98926" y2="7.16209">
  </linearGradient>
  <linearGradient id="id8" gradientUnits="userSpaceOnUse" x1="4.79514" y1="0.793527" x2="4.79514" y2="4.33159">
   <stop offset="0" style="stop-color:#D9F993"/>
   <stop offset="1" style="stop-color:#B1DD4B"/>
  </linearGradient>
  <linearGradient id="id9" gradientUnits="userSpaceOnUse" x1="3.62043" y1="5.02063" x2="3.62043" y2="8.25042">
   <stop offset="0" style="stop-color:#DB6D17"/>
   <stop offset="1" style="stop-color:#BF3B07"/>
  </linearGradient>
  <linearGradient id="id10" gradientUnits="userSpaceOnUse" x1="3.62043" y1="5.02063" x2="3.62043" y2="8.25042">
   <stop offset="0" style="stop-color:#F6A55E"/>
   <stop offset="1" style="stop-color:#EA5B06"/>
  </linearGradient>
  <linearGradient id="id11" gradientUnits="userSpaceOnUse" x1="4.79515" y1="0.275652" x2="4.79515" y2="4.84912">
   <stop offset="0" style="stop-color:#F9C131"/>
   <stop offset="1" style="stop-color:#FBAE0A"/>
  </linearGradient>
  <linearGradient id="id12" gradientUnits="userSpaceOnUse" x1="4.79515" y1="0.275652" x2="4.79515" y2="4.84912">
   <stop offset="0" style="stop-color:#FFEBA8"/>
   <stop offset="1" style="stop-color:#F8BE2C"/>
  </linearGradient>
  <linearGradient id="id13" gradientUnits="userSpaceOnUse" x1="3.62043" y1="7.49999" x2="3.62043" y2="5.77106">
   <stop offset="0" style="stop-color:#E5E5E5"/>
   <stop offset="1" style="stop-color:white"/>
  </linearGradient>
  <linearGradient id="id14" gradientUnits="userSpaceOnUse" x1="3.67189" y1="7.51837" x2="3.67189" y2="5.75268">
   <stop offset="0" style="stop-color:#C4CCCB"/>
   <stop offset="1" style="stop-color:#A5B0B0"/>
  </linearGradient>
 </defs>
 <g id="Ebene_x0020_1">
  <metadata id="CorelCorpID_0Corel-Layer"/>
  <g>
  </g>
  <g style="clip-path:url(#id0)">
   <g>
    <g id="_180209696">
     <g>
      <g>
       <path id="_180208472" class="fil0" d="M2.76509 0.793527l4.06009 0c0.151894,0 0.289872,0.0620301 0.389808,0.161966 0.0999307,0.099936 0.161966,0.237913 0.161966,0.389802l0 2.43453c0,0.151889 -0.0620353,0.289866 -0.161966,0.389802 -0.099936,0.099936 -0.237913,0.161966 -0.389808,0.161966l-4.06009 0c-0.151884,0 -0.289861,-0.0620301 -0.389802,-0.161966 -0.099936,-0.099936 -0.161966,-0.237924 -0.161966,-0.389802l0 -2.43453c0,-0.151889 0.0620301,-0.289866 0.161966,-0.389802 0.099936,-0.099936 0.237913,-0.161966 0.389802,-0.161966z"/>
       <polygon id="_180886216" class="fil1" points="2.78719,1.36739 6.8031,1.36739 6.8031,3.75773 2.78719,3.75773 "/>
       <path id="_180886336" class="fil2" d="M2.76509 0.793527l4.06009 0c0.151894,0 0.289872,0.0620301 0.389808,0.161966 0.0999307,0.099936 0.161966,0.237913 0.161966,0.389802l0 2.43453c0,0.151889 -0.0620353,0.289866 -0.161966,0.389802 -0.099936,0.099936 -0.237913,0.161966 -0.389808,0.161966l-4.06009 0c-0.151884,0 -0.289861,-0.0620301 -0.389802,-0.161966 -0.099936,-0.099936 -0.161966,-0.237924 -0.161966,-0.389802l0 -2.43453c0,-0.151889 0.0620301,-0.289866 0.161966,-0.389802 0.099936,-0.099936 0.237913,-0.161966 0.389802,-0.161966zm4.06009 0.286928l-4.06009 0c-0.072675,0 -0.138868,0.0298453 -0.186929,0.0779115 -0.0480662,0.048061 -0.0779115,0.114254 -0.0779115,0.186929l0 2.43453c0,0.072675 0.0298453,0.138863 0.0779115,0.186929 0.0480766,0.0480714 0.114254,0.0779115 0.186929,0.0779115l4.06009 0c0.0726802,0 0.138868,-0.0298453 0.186934,-0.0779115 0.048061,-0.0480662 0.0779063,-0.114254 0.0779063,-0.186929l0 -2.43453c0,-0.072675 -0.0298453,-0.138868 -0.0779063,-0.186929 -0.0480662,-0.0480662 -0.114254,-0.0779115 -0.186934,-0.0779115z"/>
      </g>
      <g>
       <path id="_180890224" class="fil3" d="M3.56606 2.81816l1.43403 -2.48383c0.0190024,-0.0371451 0.0610297,-0.0586746 0.103912,-0.0499263 0.0515832,0.0105146 0.0848726,0.0608734 0.0743528,0.112457l-0.362984 1.76701 1.12609 0 0 0.000218838c0.0162617,-1.56313e-005 0.0327371,0.00412666 0.0478213,0.0128593 0.0455964,0.0264116 0.0611548,0.0847945 0.0347431,0.130391l-1.43634 2.48781 -5.73147e-005 -3.12626e-005c-0.0199611,0.0344826 -0.0603784,0.0540113 -0.101567,0.0456121 -0.0515832,-0.0105146 -0.0848674,-0.0608734 -0.0743476,-0.112457l0.362979 -1.76701 -1.12608 0 0 -0.000401203c-0.0161211,1.56313e-005 -0.0324714,-0.00406934 -0.0474513,-0.012677 -0.0455964,-0.0262084 -0.0613215,-0.0844193 -0.0351131,-0.130021z"/>
       <path id="_180891208" class="fil4" d="M4.87314 0.935125l-1.05934 1.83484 1.07786 0c0.0528181,0 0.0956478,0.0428245 0.0956478,0.0956426 0,0.00938398 -0.00135471,0.0184449 -0.00387135,0.0270108l-0.266393 1.2968 1.05902 -1.83427 -1.07766 0c-0.0528181,0 -0.0956426,-0.0428245 -0.0956426,-0.0956426 0,-0.00938398 0.00135471,-0.0184501 0.00387135,-0.0270161l0.266508 -1.29737zm-1.30708 1.88303l1.43403 -2.48383c0.0190024,-0.0371451 0.0610297,-0.0586746 0.103912,-0.0499263 0.0515832,0.0105146 0.0848726,0.0608734 0.0743528,0.112457l-0.362984 1.76701 1.12609 0 0 0.000218838c0.0162617,-1.56313e-005 0.0327371,0.00412666 0.0478213,0.0128593 0.0455964,0.0264116 0.0611548,0.0847945 0.0347431,0.130391l-1.43634 2.48781 -5.73147e-005 -3.12626e-005c-0.0199611,0.0344826 -0.0603784,0.0540113 -0.101567,0.0456121 -0.0515832,-0.0105146 -0.0848674,-0.0608734 -0.0743476,-0.112457l0.362979 -1.76701 -1.12608 0 0 -0.000401203c-0.0161211,1.56313e-005 -0.0324714,-0.00406934 -0.0474513,-0.012677 -0.0455964,-0.0262084 -0.0613215,-0.0844193 -0.0351131,-0.130021z"/>
      </g>
     </g>
     <g>
      <g>
       <path id="_180890992" class="fil5" d="M1.76727 5.02063l3.70633 0c0.138655,0 0.264611,0.0566269 0.355836,0.147856 0.0912293,0.0912241 0.147856,0.217181 0.147856,0.355841l0 2.22239c0,0.13866 -0.0566269,0.264617 -0.147856,0.355841 -0.0912241,0.0912293 -0.217181,0.147856 -0.355836,0.147856l-3.70633 0c-0.138649,0 -0.264606,-0.0566269 -0.355841,-0.147856 -0.0912241,-0.0912241 -0.147851,-0.217191 -0.147851,-0.355841l0 -2.22239c0,-0.13866 0.0566269,-0.264617 0.147851,-0.355841 0.0912293,-0.0912293 0.217186,-0.147856 0.355841,-0.147856z"/>
       <polygon id="_180890896" class="fil6" points="1.78743,5.54449 5.45343,5.54449 5.45343,7.72656 1.78743,7.72656 "/>
       <path id="_180891352" class="fil7" d="M1.76727 5.02063l3.70633 0c0.138655,0 0.264611,0.0566269 0.355836,0.147856 0.0912293,0.0912241 0.147856,0.217181 0.147856,0.355841l0 2.22239c0,0.13866 -0.0566269,0.264617 -0.147856,0.355841 -0.0912241,0.0912293 -0.217181,0.147856 -0.355836,0.147856l-3.70633 0c-0.138649,0 -0.264606,-0.0566269 -0.355841,-0.147856 -0.0912241,-0.0912241 -0.147851,-0.217191 -0.147851,-0.355841l0 -2.22239c0,-0.13866 0.0566269,-0.264617 0.147851,-0.355841 0.0912293,-0.0912293 0.217186,-0.147856 0.355841,-0.147856zm3.70633 0.261933l-3.70633 0c-0.0663443,0 -0.126764,0.0272401 -0.170641,0.0711171 -0.043877,0.043877 -0.0711223,0.104302 -0.0711223,0.170647l0 2.22239c0,0.0663443 0.0272453,0.12677 0.0711223,0.170647 0.0438822,0.0438822 0.104297,0.0711171 0.170641,0.0711171l3.70633 0c0.0663443,0 0.126764,-0.0272401 0.170641,-0.0711171 0.043877,-0.043877 0.0711223,-0.104302 0.0711223,-0.170647l0 -2.22239c0,-0.0663443 -0.0272453,-0.12677 -0.0711223,-0.170647 -0.043877,-0.043877 -0.104297,-0.0711171 -0.170641,-0.0711171z"/>
      </g>
      <path id="_180887464" class="fil8" d="M3.10078 6.24822c0,-0.0721227 0.0233896,-0.145413 0.0697832,-0.21987 0.0463884,-0.0740714 0.114218,-0.135664 0.203102,-0.184392 0.0892702,-0.0487279 0.192968,-0.0728991 0.31187,-0.0728991 0.11032,0 0.207781,0.0202686 0.292378,0.0612017 0.0845913,0.0405423 0.149696,0.0959031 0.196084,0.166072 0.0460028,0.0701688 0.0690017,0.146189 0.0690017,0.228446 0,0.0647083 -0.0132553,0.121236 -0.03937,0.169964 -0.0265106,0.0487331 -0.0577002,0.0908333 -0.0935636,0.126311 -0.0362541,0.0354726 -0.101358,0.0947307 -0.194917,0.178546 -0.0261199,0.0237752 -0.0467792,0.0444397 -0.062374,0.062374 -0.0155948,0.0179291 -0.027287,0.0343054 -0.0346962,0.0491187 -0.0077948,0.0148132 -0.0136461,0.0296265 -0.0179343,0.0444397 -0.00428818,0.0148132 -0.0105251,0.0409331 -0.0187106,0.0783544 -0.0144225,0.0791411 -0.0596437,0.118511 -0.136049,0.118511 -0.0393752,0 -0.0729043,-0.0128645 -0.0998005,-0.0385936 -0.027287,-0.0261199 -0.0405423,-0.0643227 -0.0405423,-0.11539 0,-0.0639319 0.0097435,-0.119287 0.0296265,-0.166072 0.019883,-0.0467792 0.0460028,-0.0881031 0.0787452,-0.123576 0.0327475,-0.035087 0.0768017,-0.0771872 0.132548,-0.12592 0.0487279,-0.0428818 0.0838149,-0.0748478 0.105647,-0.0966794 0.0218265,-0.0214409 0.0401515,-0.0456069 0.0549648,-0.0725083 0.0148132,-0.0265054 0.0222225,-0.0553556 0.0222225,-0.08654 0,-0.0612069 -0.0226132,-0.112274 -0.0678345,-0.15438 -0.0456121,-0.0417095 -0.103698,-0.0627596 -0.175425,-0.0627596 -0.0838149,0 -0.145407,0.0210501 -0.185173,0.0635411 -0.0393752,0.0421002 -0.0728991,0.104474 -0.100186,0.186731 -0.0261199,0.0857636 -0.0752385,0.129036 -0.147361,0.129036 -0.0428818,0 -0.0787452,-0.015204 -0.107981,-0.0452213 -0.0292409,-0.030408 -0.0440541,-0.0627648 -0.0440541,-0.0978466zm0.557078 1.25176c-0.0463936,0 -0.0869359,-0.015204 -0.121632,-0.0452213 -0.034691,-0.0300173 -0.0518489,-0.0721227 -0.0518489,-0.125915 0,-0.0483423 0.0167671,-0.0884939 0.050291,-0.121241 0.0335239,-0.0327475 0.074457,-0.0491187 0.12319,-0.0491187 0.0479463,0 0.0884939,0.0163712 0.121236,0.0491187 0.0327475,0.0327475 0.0491187,0.0728991 0.0491187,0.121241 0,0.0530161 -0.0171527,0.0951163 -0.0514582,0.125524 -0.0343054,0.030408 -0.0736754,0.0456121 -0.118897,0.0456121z"/>
      <path id="_180885928" class="fil9" d="M3.08239 6.24822c0,-0.0377912 0.00615872,-0.0759941 0.0184293,-0.114588 0.0121507,-0.0382341 0.0302257,-0.0765672 0.0541519,-0.114973l7.2946e-005 0c0.0241712,-0.0385988 0.0537872,-0.0738109 0.0887856,-0.105589 0.0349463,-0.0317263 0.0752959,-0.0601439 0.120996,-0.0851957l7.2946e-005 0c0.04618,-0.0252028 0.0959604,-0.0440385 0.149419,-0.0565175 0.0533756,-0.0124685 0.110414,-0.0186794 0.171209,-0.0186794 0.0562622,0 0.109461,0.00521564 0.159569,0.0156834 0.0502181,0.0104886 0.0971536,0.0262762 0.14078,0.0473836l-1.56313e-005 2.60521e-005c0.043778,0.0209876 0.0825019,0.0457944 0.11626,0.0744153 0.0339824,0.0288137 0.0630149,0.0614934 0.08716,0.0980237l7.2946e-005 7.2946e-005c0.0239784,0.0365772 0.0419752,0.0747123 0.0539748,0.114426 0.0120257,0.0397972 0.0180437,0.0811472 0.0180437,0.124071 0,0.0336541 -0.00348577,0.0653283 -0.0103896,0.0950694 -0.00693508,0.0298505 -0.0173611,0.0576794 -0.0312052,0.0835127l-7.2946e-005 0.000140681c-0.0136826,0.0251455 -0.0285688,0.0485924 -0.0446377,0.0702834 -0.0161523,0.0218056 -0.0335291,0.0419074 -0.0520834,0.0602638l-7.2946e-005 7.2946e-005c-0.0177936,0.0174132 -0.0433403,0.0412718 -0.0764734,0.0715756 -0.0330393,0.03021 -0.0726594,0.0659431 -0.11898,0.107444l3.12626e-005 3.12626e-005c-0.0125467,0.0114213 -0.0240409,0.0223527 -0.0344878,0.0327996 -0.0100978,0.0100978 -0.0188826,0.0194505 -0.0263752,0.0280634 -0.00777395,0.00893067 -0.0142505,0.0170225 -0.0193463,0.0242233 -0.00522085,0.00737796 -0.00952987,0.0144016 -0.0128385,0.0210189l-0.000140681 0.000359519c-0.00723728,0.0137503 -0.0126457,0.0274173 -0.0165744,0.0409904 -0.00208938,0.00722165 -0.00465291,0.0171788 -0.00767496,0.0298401 -0.00263126,0.0110253 -0.00620041,0.0268024 -0.0106762,0.047295l-4.68938e-005 -1.04209e-005c-0.0080449,0.0435592 -0.0249058,0.0765307 -0.0506245,0.0989251 -0.0261147,0.0227487 -0.0605451,0.0341022 -0.103328,0.0341022 -0.0441688,0 -0.0819496,-0.0145944 -0.112441,-0.0437624l-6.77355e-005 0c-0.0157303,-0.0150581 -0.0274068,-0.0335447 -0.0350974,-0.0555223 -0.0074457,-0.0212533 -0.011119,-0.045586 -0.011119,-0.0730814 0,-0.0329924 0.00253227,-0.0638694 0.00764369,-0.0926257 0.00515311,-0.0289856 0.0129687,-0.0558766 0.0234886,-0.0806261 0.010374,-0.0244056 0.0223319,-0.0473263 0.0359155,-0.0686838 0.0136565,-0.0214722 0.0290481,-0.0415427 0.0462061,-0.0601335l7.2946e-005 -7.2946e-005c0.0168609,-0.0180645 0.0366658,-0.0379527 0.0594405,-0.0595916 0.0217639,-0.020675 0.0465656,-0.0432205 0.0744309,-0.0675844l-3.12626e-005 -3.6473e-005c0.0261042,-0.0229728 0.0470918,-0.0416886 0.062697,-0.0559495 0.0165014,-0.0150842 0.0305018,-0.0283499 0.0420898,-0.0399379l0.000140681 -7.2946e-005c0.0102124,-0.0100301 0.0196589,-0.0207688 0.0283187,-0.0321952 0.00863888,-0.0113952 0.0164493,-0.0234261 0.0234157,-0.036077l7.2946e-005 -7.2946e-005c0.00666413,-0.0119267 0.0116505,-0.0243118 0.0149435,-0.0371347 0.00327215,-0.0127395 0.00490822,-0.0262501 0.00490822,-0.0405006 0,-0.0280581 -0.00513227,-0.0536778 -0.0153812,-0.076958 -0.0102958,-0.0233896 -0.0258229,-0.0446846 -0.0465656,-0.0639944l3.12626e-005 -3.12626e-005c-0.0209615,-0.0191327 -0.044794,-0.0335499 -0.0716277,-0.0431788 -0.0270577,-0.00971223 -0.0574658,-0.0145944 -0.0913335,-0.0145944 -0.0398858,0 -0.0742642,0.00493427 -0.103146,0.0148289 -0.0280686,0.00962366 -0.0509527,0.0238898 -0.0686734,0.0428245 -0.0185126,0.0197944 -0.0358217,0.0446742 -0.0518646,0.0745872 -0.0162201,0.0302205 -0.0309603,0.0652345 -0.0441584,0.104964l5.21043e-006 0c-0.014089,0.0462738 -0.0347483,0.0813868 -0.0619676,0.105219 -0.0280321,0.0245463 -0.0623479,0.0368846 -0.102916,0.0368846 -0.0239054,0 -0.0459664,-0.00428297 -0.0662141,-0.0127916 -0.0202164,-0.00849299 -0.0385103,-0.021196 -0.0549075,-0.0380309l-7.2946e-005 -7.2946e-005c-0.016095,-0.0167359 -0.0282926,-0.0341595 -0.0365094,-0.0523387 -0.00845131,-0.0187002 -0.0127134,-0.0380726 -0.0127134,-0.0582161zm0.0533287 -0.103531c-0.0110253,0.0346858 -0.0165639,0.0692049 -0.0165639,0.103531 0,0.0149435 0.00315231,0.029293 0.00941003,0.0431371 0.00648698,0.0143547 0.0163399,0.0283395 0.0294754,0.0420012 0.0128072,0.0131355 0.0270577,0.0230301 0.0427672,0.0296317 0.015699,0.0065964 0.0330237,0.00991544 0.052,0.00991544 0.031471,0 0.0577419,-0.00926414 0.078792,-0.0276934 0.0219776,-0.0192421 0.039,-0.0487071 0.0510465,-0.088275l0.000145892 -0.000427255c0.0140213,-0.0422722 0.0296213,-0.0793912 0.0467375,-0.111289 0.0173976,-0.0324297 0.0365772,-0.0598522 0.057471,-0.0821945 0.0220349,-0.0235459 0.0498429,-0.0410634 0.0834606,-0.0525888 0.0327996,-0.0112389 0.0711431,-0.0168401 0.115067,-0.0168401 0.0378537,0 0.0723728,0.0056481 0.103682,0.016887 0.0314866,0.0112962 0.0594718,0.0282457 0.0840911,0.0507548l0.000145892 7.2946e-005c0.0244734,0.02278 0.0428714,0.0480974 0.0551836,0.0760618 0.0123539,0.0280581 0.0185387,0.0586017 0.0185387,0.0917452 0,0.0169287 -0.00206854,0.0334561 -0.00620041,0.0495459 -0.0041006,0.0159908 -0.0102229,0.0312678 -0.0183459,0.0458101l2.60521e-005 1.56313e-005c-0.0078469,0.0142453 -0.016616,0.0277664 -0.0262918,0.0405267 -0.00961844,0.0126926 -0.0202269,0.0247391 -0.031794,0.0361135l3.12626e-005 3.12626e-005c-0.0102385,0.0102385 -0.0247183,0.0238898 -0.043382,0.0409487 -0.0195756,0.0178926 -0.0405163,0.0366241 -0.0631243,0.0565227l-7.2946e-005 0c-0.0270056,0.0236084 -0.0514425,0.0458465 -0.0733159,0.0666205 -0.0221808,0.0210657 -0.0414281,0.0404016 -0.057794,0.0579347 -0.015574,0.0168766 -0.0296265,0.0352225 -0.0421836,0.0549648 -0.0126301,0.0198569 -0.0236814,0.0410008 -0.0331852,0.0633692 -0.00935792,0.0220245 -0.0163659,0.0462269 -0.0210501,0.0725812 -0.00473107,0.0265992 -0.00707055,0.0553764 -0.00707055,0.0863107 0,0.0235615 0.00295952,0.0438874 0.00896193,0.0610141 0.00574189,0.0164024 0.0143599,0.030111 0.0259062,0.0411624l-3.12626e-005 3.12626e-005c0.0232854,0.0222589 0.0525576,0.0333936 0.0871235,0.0333936 0.0336229,0 0.0600189,-0.00834189 0.0792037,-0.0250569 0.0194661,-0.0169495 0.0323984,-0.0430485 0.0388229,-0.0783023l7.2946e-005 -0.000646093c0.00369419,-0.0169183 0.00735191,-0.0329299 0.0109575,-0.0480141 0.00320962,-0.0134481 0.00591904,-0.0239784 0.00811263,-0.0315595 0.00464249,-0.0160429 0.0109471,-0.0320233 0.0192942,-0.047889l3.12626e-005 1.56313e-005c0.00406413,-0.00807616 0.00927456,-0.0165639 0.0155427,-0.0254165 0.00649219,-0.00917035 0.0136669,-0.0182469 0.021493,-0.0272349 0.008097,-0.00931103 0.0174549,-0.0192786 0.028105,-0.0299287 0.010301,-0.010301 0.0222225,-0.0216181 0.03578,-0.0339563l0.000140681 -6.77355e-005c0.0471856,-0.0422722 0.0868786,-0.0780626 0.118808,-0.107262 0.031867,-0.0291471 0.0570177,-0.052667 0.0754626,-0.0707107 0.0172673,-0.0170902 0.0334197,-0.03578 0.0484257,-0.0560329 0.0151102,-0.0203936 0.0290846,-0.0424024 0.0419074,-0.0659692 0.0122237,-0.0228425 0.0214722,-0.0476077 0.027683,-0.0743267 0.00624209,-0.0268754 0.00938919,-0.0558245 0.00938919,-0.0868786 0,-0.0393335 -0.00549179,-0.0771403 -0.0164597,-0.113441 -0.010994,-0.0363948 -0.0275058,-0.0713672 -0.0495251,-0.104954l1.56313e-005 -1.04209e-005c-0.0222225,-0.0336072 -0.0489415,-0.0636662 -0.0802145,-0.0901872 -0.0315179,-0.0267191 -0.0676313,-0.0498586 -0.108419,-0.0694081l-7.2946e-005 0c-0.0409644,-0.0198205 -0.0850758,-0.0346545 -0.132308,-0.0445179 -0.0473419,-0.00988939 -0.098055,-0.0148184 -0.152098,-0.0148184 -0.0581015,0 -0.112373,0.00588257 -0.162883,0.017679 -0.0504004,0.0117651 -0.0971015,0.029392 -0.140171,0.052891l1.56313e-005 3.12626e-005c-0.0431736,0.0236658 -0.0811836,0.0504109 -0.113962,0.0801728 -0.0327215,0.0297098 -0.0602273,0.0623323 -0.0824393,0.0977945l5.21043e-005 3.12626e-005c-0.0224569,0.0360405 -0.0392866,0.0716017 -0.0504213,0.106647zm0.522131 1.37368c-0.0252289,0 -0.0490614,-0.0041996 -0.0714818,-0.0125311 -0.0223892,-0.00832105 -0.0431111,-0.0207531 -0.0621395,-0.0372129 -0.0194974,-0.0168766 -0.0341074,-0.0371712 -0.0438353,-0.0608057 -0.00961844,-0.0233635 -0.0144068,-0.0497127 -0.0144068,-0.0789692 0,-0.0265575 0.00467896,-0.0510309 0.0140108,-0.0735087 0.00933187,-0.0224569 0.0232958,-0.0427151 0.0418814,-0.0608734 0.0184553,-0.0180281 0.0390834,-0.0316012 0.0619259,-0.0407143 0.0227904,-0.00909219 0.047467,-0.0136461 0.0740454,-0.0136461 0.0263335,0 0.0507808,0.00455912 0.0732586,0.0136617 0.0225299,0.00912345 0.0428766,0.0227487 0.0609724,0.0408445l0 6.77355e-005c0.0181271,0.0181323 0.0317575,0.0383696 0.0408602,0.0608057 0.0090974,0.02241 0.0136461,0.0468365 0.0136461,0.0733628 0,0.0584349 -0.0192369,0.105141 -0.0577055,0.139238 -0.0187732,0.0166369 -0.0390626,0.0291784 -0.0609568,0.0375828 -0.0220193,0.00846694 -0.0453463,0.0126978 -0.070075,0.0126978zm-0.0586954 -0.0468574c0.0180593,0.00671103 0.0376245,0.0100926 0.0586954,0.0100926 0.0204926,0 0.039469,-0.00337115 0.0570073,-0.0101134 0.0176633,-0.00677876 0.0342325,-0.0170694 0.0497544,-0.0308301 0.0301371,-0.0267138 0.0452109,-0.0642237 0.0452109,-0.111811 0,-0.0218108 -0.00363688,-0.0416469 -0.0109158,-0.059576 -0.00725812,-0.0178926 -0.0181948,-0.034097 -0.032784,-0.0487018l-3.12626e-005 3.12626e-005c-0.0146152,-0.0146152 -0.0308926,-0.0255623 -0.0487696,-0.0327996 -0.0179864,-0.00728417 -0.0378329,-0.0109315 -0.0594718,-0.0109315 -0.0221391,0 -0.0423243,0.00364209 -0.0605504,0.0109158 -0.0181844,0.00725291 -0.0347952,0.0182469 -0.0498586,0.0329611 -0.0149331,0.0145892 -0.0261251,0.0307884 -0.0335551,0.0486706 -0.00741444,0.0178613 -0.0111347,0.0376505 -0.0111347,0.0594301 0,0.0246349 0.00383487,0.0463415 0.0115307,0.0650365 0.00751343,0.0182469 0.0188148,0.0339407 0.0339251,0.0470189 0.0157303,0.0136044 0.0327163,0.0238325 0.0509475,0.030606z"/>
     </g>
     <line id="_180890680" class="fil10" x1="7.43113" y1="6.23977" x2="7.43142" y2= "6.23962" />
     <path id="_180886192" class="fil11" d="M5.58885 6.64087l0.843344 -0.527092 1.56313e-005 2.60521e-005c0.00633588,-0.0039495 0.0137243,-0.00640882 0.0217066,-0.0068465 0.0252758,-0.00138597 0.046899,0.0179864 0.048285,0.0432622l0.0188774 0.338563c0.157563,-0.0150164 0.316273,-0.0415323 0.470309,-0.0823612 0.152863,-0.0405267 0.301335,-0.0951632 0.439739,-0.16665l0.00136513 -0.000687776c0.187685,-0.0905051 0.393179,-0.236897 0.535199,-0.419757 0.110268,-0.141974 0.181708,-0.30568 0.174763,-0.481183 -0.000307415,-0.00286573 -0.000359519,-0.0057992 -0.000114629,-0.00877957 0.00298557,-0.0357383 -0.00401203,-0.0753115 -0.0108481,-0.113952 -0.00218317,-0.0123539 -0.00436113,-0.0246453 -0.00626293,-0.0369992 -0.0463155,-0.169985 -0.130735,-0.307165 -0.240586,-0.423206 -0.111545,-0.117818 -0.24947,-0.214482 -0.400619,-0.301668l-0.00151623 -0.000776353c-0.0569656,-0.0307624 -0.0767079,-0.0823768 -0.0712369,-0.131975 0.00202686,-0.0183876 0.00781564,-0.0365251 0.0166577,-0.0530578 0.00886293,-0.0165952 0.0207688,-0.0315231 0.0349776,-0.0434549 0.0381403,-0.0320233 0.0918702,-0.0442209 0.148846,-0.0140265l0 5.21043e-006c0.190493,0.0961376 0.382904,0.239977 0.531119,0.415995 0.129099,0.153301 0.22484,0.331123 0.257317,0.523517l0.000312626 0.00164128c0.008295,0.0480453 0.0113535,0.0934333 0.014485,0.139999 0.000745091,0.0111086 0.00152144,0.022483 0.00271463,0.0383123l-8.33668e-005 5.21043e-006c0.000130261,0.00177154 0.000161523,0.00356393 8.33668e-005,0.00538237 -0.0191014,0.41784 -0.237793,0.732935 -0.5466,0.960589 -0.377704,0.27845 -0.891113,0.425035 -1.3347,0.467943l0.0191639 0.343758 -6.77355e-005 5.21043e-006c0.000416834,0.00743528 -0.00097956,0.0150633 -0.00441844,0.0222537 -0.0109054,0.0228008 -0.0382341,0.0324453 -0.0610349,0.0215399l-0.893958 -0.428766c-0.00878999,-0.0034962 -0.0165796,-0.00972786 -0.0219567,-0.018372 -0.0133804,-0.0215086 -0.00678918,-0.0498065 0.0147195,-0.0631868z"/>
     <path id="_180885640" class="fil12" d="M2.60221 2.54643l-0.835799 0.5377c-0.00655993,0.00450702 -0.0143756,0.00736754 -0.0228894,0.00793548 -0.0252758,0.00168297 -0.0471439,-0.0174445 -0.0488269,-0.0427203l-0.0232072 -0.33689c-0.230296,0.0309239 -0.45772,0.101707 -0.657952,0.2158 -0.192207,0.109518 -0.359431,0.259083 -0.479896,0.451739l-5.21043e-006 -5.21043e-006c-0.0459455,0.0792245 -0.0857792,0.166556 -0.111805,0.257114 -0.0223371,0.0777448 -0.0344461,0.157574 -0.0313876,0.236209 0.000208417,0.00230822 0.00024489,0.00465812 9.37877e-005,0.00704449 -0.000943087,0.0142609 0.000302205,0.0304758 0.0015475,0.0466489 0.000745091,0.0095976 0.00148497,0.0192577 0.00184449,0.0320389 0.0218265,0.202983 0.107236,0.389182 0.232781,0.545881 0.135596,0.16925 0.317659,0.30406 0.517041,0.388776 0.00121924,0.000432465 0.00243327,0.000911824 0.00363688,0.00145371 0.0588361,0.0265836 0.0821163,0.0766141 0.0801572,0.126473 -0.00073467,0.0186742 -0.00521564,0.0371972 -0.0128281,0.0542041 -0.00765411,0.0170954 -0.0185231,0.0328517 -0.0319972,0.0458726 -0.0355455,0.0343732 -0.0877592,0.0504265 -0.146236,0.0253643 -0.00115671,-0.000448097 -0.00230822,-0.000953508 -0.00344409,-0.00150581 -0.168625,-0.0821215 -0.333962,-0.18497 -0.475905,-0.313209 -0.121554,-0.10982 -0.225528,-0.238059 -0.299214,-0.387593l-0.000588778 -0.00104209c-0.0497335,-0.090182 -0.0822049,-0.181828 -0.103833,-0.276116 -0.0213627,-0.0931468 -0.0320285,-0.188414 -0.0383227,-0.287246l4.68938e-005 -5.21043e-006c-9.37877e-005,-0.0015996 -0.000114629,-0.00320962 -4.68938e-005,-0.00484049l0.000390782 -0.00837315 2.60521e-005 0c0.00442886,-0.389313 0.181307,-0.708237 0.445366,-0.946823 0.294952,-0.266498 0.699119,-0.432262 1.09158,-0.482975l-0.02377 -0.345066 5.21043e-006 0c-0.000500201,-0.00740922 0.000797195,-0.0150425 0.00412145,-0.0222589 0.0106032,-0.0229988 0.0378537,-0.0330445 0.0608526,-0.0224413l0.902779 0.418564c0.00773227,0.00352746 0.0145736,0.00924329 0.0195026,0.0169287 0.0136774,0.0213106 0.00748738,0.0496866 -0.0138233,0.063364z"/>
     <path id="_180885400" class="fil13" d="M6.41498 6.23274l-0.706961 0.441854 0.751698 0.360535 -0.0173247 -0.310755c-0.00136513,-0.0249163 0.0174393,-0.0462842 0.0421888,-0.0482121l-5.21043e-006 -7.2946e-005c0.439223,-0.0359936 0.956816,-0.177524 1.33232,-0.454349 0.287058,-0.211621 0.490489,-0.503004 0.509095,-0.887455 -0.000745091,-0.0100196 -0.00164649,-0.023374 -0.0025479,-0.03677 -0.00295952,-0.0439864 -0.00585131,-0.0868578 -0.0134116,-0.130672l-0.000224048 -0.00146413c-0.0295379,-0.175445 -0.11775,-0.338719 -0.236939,-0.48025 -0.139895,-0.166134 -0.322249,-0.302215 -0.503119,-0.393382l-0.000713828 -0.00036994 -5.21043e-006 1.04209e-005c-0.0187002,-0.00991023 -0.0356341,-0.0064974 -0.0472429,0.00325131 -0.00535111,0.00449139 -0.00980602,0.0100561 -0.013073,0.0161732 -0.0032982,0.00617435 -0.00547616,0.0130261 -0.0062473,0.0200341 -0.00166213,0.0150894 0.00488217,0.0310906 0.0234886,0.0411363 0.00135471,0.00072946 0.00265732,0.00151623 0.00390782,0.00235511 0.158293,0.0913127 0.303122,0.192979 0.421195,0.31769 0.120548,0.127332 0.213075,0.278091 0.263549,0.465265 0.000448097,0.00167776 0.000791985,0.00335551 0.0010473,0.00503327l3.12626e-005 -5.21043e-006c0.00182886,0.0121247 0.00405371,0.0246714 0.00628377,0.0372962 0.0077479,0.043804 0.0156834,0.0886502 0.0120673,0.13544 0.0077948,0.199528 -0.0714401,0.383065 -0.193823,0.540639 -0.151087,0.194531 -0.368799,0.34989 -0.56741,0.445741 -0.144464,0.0745872 -0.299094,0.131516 -0.45808,0.173658 -0.175221,0.0464405 -0.355539,0.0749415 -0.533183,0.089364 -0.0252758,0.00197996 -0.0473836,-0.0169078 -0.0493636,-0.0421836 -9.37877e-005,-0.00120361 -0.000140681,-0.00240201 -0.000140681,-0.00358998l-0.0170589 -0.305946zm-0.826123 0.408133l0.843344 -0.527092 1.56313e-005 2.60521e-005c0.00633588,-0.0039495 0.0137243,-0.00640882 0.0217066,-0.0068465 0.0252758,-0.00138597 0.046899,0.0179864 0.048285,0.0432622l0.0188774 0.338563c0.157563,-0.0150164 0.316273,-0.0415323 0.470309,-0.0823612 0.152863,-0.0405267 0.301335,-0.0951632 0.439739,-0.16665l0.00136513 -0.000687776c0.187685,-0.0905051 0.393179,-0.236897 0.535199,-0.419757 0.110268,-0.141974 0.181708,-0.30568 0.174763,-0.481183 -0.000307415,-0.00286573 -0.000359519,-0.0057992 -0.000114629,-0.00877957 0.00298557,-0.0357383 -0.00401203,-0.0753115 -0.0108481,-0.113952 -0.00218317,-0.0123539 -0.00436113,-0.0246453 -0.00626293,-0.0369992 -0.0463155,-0.169985 -0.130735,-0.307165 -0.240586,-0.423206 -0.111545,-0.117818 -0.24947,-0.214482 -0.400619,-0.301668l-0.00151623 -0.000776353c-0.0569656,-0.0307624 -0.0767079,-0.0823768 -0.0712369,-0.131975 0.00202686,-0.0183876 0.00781564,-0.0365251 0.0166577,-0.0530578 0.00886293,-0.0165952 0.0207688,-0.0315231 0.0349776,-0.0434549 0.0381403,-0.0320233 0.0918702,-0.0442209 0.148846,-0.0140265l0 5.21043e-006c0.190493,0.0961376 0.382904,0.239977 0.531119,0.415995 0.129099,0.153301 0.22484,0.331123 0.257317,0.523517l0.000312626 0.00164128c0.008295,0.0480453 0.0113535,0.0934333 0.014485,0.139999 0.000745091,0.0111086 0.00152144,0.022483 0.00271463,0.0383123l-8.33668e-005 5.21043e-006c0.000130261,0.00177154 0.000161523,0.00356393 8.33668e-005,0.00538237 -0.0191014,0.41784 -0.237793,0.732935 -0.5466,0.960589 -0.377704,0.27845 -0.891113,0.425035 -1.3347,0.467943l0.0191639 0.343758 -6.77355e-005 5.21043e-006c0.000416834,0.00743528 -0.00097956,0.0150633 -0.00441844,0.0222537 -0.0109054,0.0228008 -0.0382341,0.0324453 -0.0610349,0.0215399l-0.893958 -0.428766c-0.00878999,-0.0034962 -0.0165796,-0.00972786 -0.0219567,-0.018372 -0.0133804,-0.0215086 -0.00678918,-0.0498065 0.0147195,-0.0631868zm1.84228 -0.401099l0.000286573 -0.000145892"/>
     <path id="_180886048" class="fil14" d="M1.78091 2.96575l0.70161 -0.451374 -0.756872 -0.350912 0.0214357 0.311198c0.00166734,0.0250361 -0.0170798,0.0467167 -0.041996,0.0487696 -0.388072,0.0419439 -0.791896,0.201951 -1.08274,0.464733 -0.246536,0.222756 -0.411566,0.51975 -0.415234,0.881307l-4.68938e-005 0.00161523 4.68938e-005 0 -0.000260521 0.00555431c0.00603367,0.0937251 0.0161211,0.183647 0.0360353,0.270494 0.0197996,0.0863263 0.049473,0.170131 0.094861,0.252429 0.000844089,0.00153187 0.00158397,0.00309499 0.00223527,0.00467896 0.0682357,0.138472 0.165061,0.257734 0.278539,0.360259 0.134137,0.121184 0.292195,0.219291 0.454307,0.298281 0.0191223,0.00797716 0.0355455,0.0032982 0.0463415,-0.00713828 0.00495511,-0.00478838 0.00900361,-0.0106866 0.0118954,-0.0171527 0.00293347,-0.00655471 0.00465812,-0.0135627 0.00492906,-0.0204613 0.000588778,-0.015105 -0.00706534,-0.0305383 -0.0263022,-0.0392293 -0.000630461,-0.000281363 -0.00124529,-0.000583568 -0.00185491,-0.000890983 -0.213091,-0.0905832 -0.407653,-0.234662 -0.552576,-0.415547 -0.136284,-0.170105 -0.229003,-0.372837 -0.252627,-0.59452 -0.000218838,-0.00206854 -0.000291784,-0.00412145 -0.00023968,-0.00614309 -0.000265732,-0.00730502 -0.00106293,-0.0175643 -0.00186012,-0.0278706 -0.00142766,-0.0185387 -0.00286052,-0.0371139 -0.00166213,-0.0574293 -0.00345972,-0.0891556 0.00992065,-0.1784 0.0346389,-0.264434 0.0283343,-0.0986073 0.0716433,-0.193416 0.121502,-0.279185l0.000745091 -0.00124008 -2.60521e-005 -1.56313e-005c0.128989,-0.206286 0.307561,-0.366163 0.512565,-0.48297 0.225304,-0.12838 0.482511,-0.204598 0.740605,-0.233104 0.025182,-0.00277195 0.0478525,0.0153864 0.0506245,0.0405684l0.000171944 0.00197475 5.21043e-006 0 0.0212012 0.307754zm0.821304 -0.419319l-0.835799 0.5377c-0.00655993,0.00450702 -0.0143756,0.00736754 -0.0228894,0.00793548 -0.0252758,0.00168297 -0.0471439,-0.0174445 -0.0488269,-0.0427203l-0.0232072 -0.33689c-0.230296,0.0309239 -0.45772,0.101707 -0.657952,0.2158 -0.192207,0.109518 -0.359431,0.259083 -0.479896,0.451739l-5.21043e-006 -5.21043e-006c-0.0459455,0.0792245 -0.0857792,0.166556 -0.111805,0.257114 -0.0223371,0.0777448 -0.0344461,0.157574 -0.0313876,0.236209 0.000208417,0.00230822 0.00024489,0.00465812 9.37877e-005,0.00704449 -0.000943087,0.0142609 0.000302205,0.0304758 0.0015475,0.0466489 0.000745091,0.0095976 0.00148497,0.0192577 0.00184449,0.0320389 0.0218265,0.202983 0.107236,0.389182 0.232781,0.545881 0.135596,0.16925 0.317659,0.30406 0.517041,0.388776 0.00121924,0.000432465 0.00243327,0.000911824 0.00363688,0.00145371 0.0588361,0.0265836 0.0821163,0.0766141 0.0801572,0.126473 -0.00073467,0.0186742 -0.00521564,0.0371972 -0.0128281,0.0542041 -0.00765411,0.0170954 -0.0185231,0.0328517 -0.0319972,0.0458726 -0.0355455,0.0343732 -0.0877592,0.0504265 -0.146236,0.0253643 -0.00115671,-0.000448097 -0.00230822,-0.000953508 -0.00344409,-0.00150581 -0.168625,-0.0821215 -0.333962,-0.18497 -0.475905,-0.313209 -0.121554,-0.10982 -0.225528,-0.238059 -0.299214,-0.387593l-0.000588778 -0.00104209c-0.0497335,-0.090182 -0.0822049,-0.181828 -0.103833,-0.276116 -0.0213627,-0.0931468 -0.0320285,-0.188414 -0.0383227,-0.287246l4.68938e-005 -5.21043e-006c-9.37877e-005,-0.0015996 -0.000114629,-0.00320962 -4.68938e-005,-0.00484049l0.000390782 -0.00837315 2.60521e-005 0c0.00442886,-0.389313 0.181307,-0.708237 0.445366,-0.946823 0.294952,-0.266498 0.699119,-0.432262 1.09158,-0.482975l-0.02377 -0.345066 5.21043e-006 0c-0.000500201,-0.00740922 0.000797195,-0.0150425 0.00412145,-0.0222589 0.0106032,-0.0229988 0.0378537,-0.0330445 0.0608526,-0.0224413l0.902779 0.418564c0.00773227,0.00352746 0.0145736,0.00924329 0.0195026,0.0169287 0.0136774,0.0213106 0.00748738,0.0496866 -0.0138233,0.063364z"/>
    </g>
   </g>
  </g>
  <polygon class="fil15" points="-0,0 8.53288,0 8.53288,8.53288 -0,8.53288 "/>
 </g>
</svg>
