<?xml version="1.0" encoding="UTF-8"?>
<!DOCTYPE svg PUBLIC "-//W3C//DTD SVG 1.1//EN" "http://www.w3.org/Graphics/SVG/1.1/DTD/svg11.dtd">
<!-- Creator: CorelDRAW -->
<svg xmlns="http://www.w3.org/2000/svg" xml:space="preserve" width="1200px" height="1200px" style="shape-rendering:geometricPrecision; text-rendering:geometricPrecision; image-rendering:optimizeQuality; fill-rule:evenodd; clip-rule:evenodd"
viewBox="0 0 103.831 103.831"
 xmlns:xlink="http://www.w3.org/1999/xlink">
 <defs>
  <style type="text/css">
   <![CDATA[
    .fil1 {fill:white}
    .fil0 {fill:#0063A6}
   ]]>
  </style>
 </defs>
 <g id="Ebene_x0020_1">
  <metadata id="CorelCorpID_0Corel-Layer"/>
  <g id="_225524912">
   <circle id="_173953464" class="fil0" cx="51.9156" cy="51.9156" r="51.9156"/>
   <path id="_171858984" class="fil1" d="M68.4727 89.5453l-33.1141 0c-3.86336,0 -7.02425,-3.16089 -7.02425,-7.02425l0 -61.211c0,-3.86336 3.16089,-7.02425 7.02425,-7.02425l33.1141 0c3.86336,0 7.02425,3.16089 7.02425,7.02425l0 61.211c0,3.86336 -3.16089,7.02425 -7.02425,7.02425zm-16.557 -15.2526c2.88136,0 5.21803,2.33656 5.21803,5.21792 0,2.88136 -2.33666,5.21803 -5.21803,5.21803 -2.88136,0 -5.21803,-2.33666 -5.21803,-5.21803 0,-2.88136 2.33666,-5.21792 5.21803,-5.21792zm-15.1523 -52.9826l30.3044 0c0.772798,0 1.40483,0.632136 1.40483,1.40483l0 46.9618c0,0.772798 -0.63203,1.40483 -1.40483,1.40483l-30.3044 0c-0.772798,0 -1.40483,-0.63203 -1.40483,-1.40483l0 -46.9618c0,-0.772693 0.63203,-1.40483 1.40483,-1.40483z"/>
  </g>
 </g>
</svg>
