<?xml version="1.0" encoding="UTF-8"?>
<!DOCTYPE svg PUBLIC "-//W3C//DTD SVG 1.1//EN" "http://www.w3.org/Graphics/SVG/1.1/DTD/svg11.dtd">
<!-- Creator: CorelDRAW -->
<svg xmlns="http://www.w3.org/2000/svg" xml:space="preserve" width="24px" height="24px" style="shape-rendering:geometricPrecision; text-rendering:geometricPrecision; image-rendering:optimizeQuality; fill-rule:evenodd; clip-rule:evenodd"
viewBox="0 0 0.901408 0.901408"
 xmlns:xlink="http://www.w3.org/1999/xlink">
 <defs>
  <style type="text/css">
   <![CDATA[
    .str0 {stroke:black;stroke-width:7.88732e-005}
    .fil0 {fill:none}
    .fil1 {fill:black;fill-rule:nonzero}
   ]]>
  </style>
   <clipPath id="id0">
    <path d="M-0 0.901408l0.901408 0 0 -0.901408 -0.901408 0 0 0.901408z"/>
   </clipPath>
 </defs>
<symbol id="Symbol1" viewBox="-12.6231 6.81722 0.238498 7.51174e-005">
 <line class="fil0 str0" x1="-12.6231" y1="6.81726" x2="-12.3846" y2= "6.81726" />
</symbol>
<symbol id="Fm0-19459-0" viewBox="-12.6231 6.81722 0.238498 7.51174e-005">
 <line class="fil0 str0" x1="-12.6231" y1="6.81726" x2="-12.3846" y2= "6.81726" />
</symbol>
 <g id="Ebene_x0020_1">
  <metadata id="CorelCorpID_0Corel-Layer"/>
  <g>
  </g>
  <g style="clip-path:url(#id0)">
   <g>
    <path class="fil1" d="M0.0984263 0.736218l-0.000484507 -0.0027493 0.042862 0.00755681c0.00380094,0.00975399 0.00993427,0.0179493 0.0174423,0.0238235 0.00975399,0.00763192 0.0218704,0.0113089 0.0339793,0.00917559l0.067861 -0.0119662 0.11437 0.0201653 -0.175403 0.0309296c-0.0235831,0.00415775 -0.0467944,-0.00270047 -0.0651831,-0.017093 -0.0178178,-0.0139418 -0.0310648,-0.0350197 -0.0354441,-0.0598423zm-0.0637859 -0.361754l-0.012631 -0.0716319c-0.00437183,-0.024815 0.000852582,-0.0491192 0.0127925,-0.0682667 0.00747418,-0.0119887 0.0175624,-0.0219906 0.0296075,-0.0289465l-0.029769 0.168845zm0.492308 -0.255271l0.175403 -0.0309296c0.0235906,-0.00415775 0.0468019,0.00270047 0.0651869,0.017093 0.0178103,0.013938 0.031061,0.035016 0.0354404,0.0598423l0.000484507 0.0027493 -0.042862 -0.00755681c-0.00380094,-0.00975399 -0.00993427,-0.0179493 -0.0174385,-0.0238235 -0.00975399,-0.00763192 -0.0218704,-0.0113089 -0.0339831,-0.00917559l-0.067861 0.0119662 -0.11437 -0.0201653zm0.339816 0.40776l0.012631 0.0716319c0.00437183,0.0248113 -0.000852582,0.0491192 -0.0127925,0.0682667 -0.00747418,0.0119887 -0.0175624,0.0219906 -0.0296075,0.0289465l0.029769 -0.168845z"/>
    <path class="fil1" d="M0.216691 0.499373l0.273037 -0.47292c0.0036169,-0.0070723 0.0116207,-0.01117 0.0197859,-0.0095061 0.00981784,0.00200563 0.0161577,0.0115906 0.0141559,0.0214122l-0.0691117 0.336436 0.214404 0 0 4.13146e-005c0.00309859,-3.75587e-006 0.00623474,0.000784977 0.00910798,0.00244883 0.00867981,0.00502911 0.0116432,0.0161465 0.00661408,0.0248263l-0.273476 0.473675 -1.12676e-005 -7.51174e-006c-0.00380094,0.00656526 -0.0114967,0.0102836 -0.019339,0.00868357 -0.0098216,-0.00200188 -0.0161577,-0.0115906 -0.0141559,-0.0214122l0.0691117 -0.336432 -0.214404 0 0 -7.88732e-005c-0.00306854,3.75587e-006 -0.00618216,-0.000773709 -0.00903286,-0.00241127 -0.00868357,-0.00499155 -0.011677,-0.0160751 -0.00668545,-0.0247549z"/>
    <path class="fil1" d="M0.0154892 0.597442l0.0764169 -0.433386c0.00466854,-0.0264789 0.0188394,-0.0489878 0.0379005,-0.0639023 0.0198235,-0.0155155 0.0448864,-0.022907 0.0703887,-0.0184113l0.206152 0.0363493 -0.0281765 0.0488075 -0.187087 -0.0329878c-0.0101934,-0.00179531 -0.0204582,0.00134836 -0.0287737,0.00785728 -0.00908545,0.00710986 -0.0158986,0.0181559 -0.0182347,0.0313991l-0.0764169 0.433386c-0.00233615,0.0132469 0.000311737,0.0259944 0.00645258,0.0358423 0.00558498,0.00895775 0.014107,0.0154178 0.0241953,0.0171944l0.283944 0.0500657 -0.0106592 0.0518948 -0.282396 -0.0497915c-0.0256075,-0.00451455 -0.0466892,-0.0200451 -0.0600113,-0.0414122 -0.01277,-0.020477 -0.0183624,-0.04643 -0.0136939,-0.0729052zm0.514291 -0.457585l0.28243 0.0497991c0.0256038,0.00451455 0.0466892,0.0200413 0.0600113,0.0414085 0.0127662,0.0204808 0.0183624,0.0464338 0.0136939,0.0729089l-0.0764169 0.433386c-0.00466854,0.0264789 -0.0188394,0.0489878 -0.0378967,0.0639023 -0.0198272,0.0155192 -0.0448901,0.022907 -0.0703925,0.0184113l-0.206148 -0.0363493 0.0281765 -0.0488075 0.187084 0.0329878c0.0101972,0.00179531 0.020462,-0.00134836 0.0287775,-0.00785728 0.00908169,-0.0071061 0.0158948,-0.0181521 0.018231,-0.0313991l0.0764169 -0.433386c0.00233615,-0.0132469 -0.000311737,-0.0259944 -0.00645258,-0.035846 -0.00558498,-0.00895775 -0.0141033,-0.0154141 -0.0241953,-0.0171906l-0.283977 -0.0500732 0.0106592 -0.0518948z"/>
   </g>
  </g>
  <polygon class="fil0" points="-0,0.901408 0.901408,0.901408 0.901408,0 -0,0 "/>
 </g>
</svg>
