<svg width="16.339mm" height="28.181mm" version="1.1" viewBox="0 0 16.339 28.181" xmlns="http://www.w3.org/2000/svg">
 <g transform="translate(-39.237 -106.72)">
  <path d="m42.095 106.72h10.624c0.786 0 1.501 0.32107 2.0188 0.83938 0.5179 0.51831 0.83872 1.2339 0.83872 2.0205v22.462c0 0.78665-0.32082 1.5022-0.83872 2.0205-0.51788 0.51831-1.2328 0.83939-2.0188 0.83939h-10.624c-0.78601 0-1.501-0.32108-2.0189-0.83939-0.51788-0.51832-0.8387-1.2339-0.8387-2.0205v-22.462c0-0.78663 0.32082-1.5022 0.8387-2.0205 0.51789-0.51831 1.2328-0.83938 2.0189-0.83938zm3.7719 25.916c-0.1902 0-0.34373-0.15366-0.34373-0.344 0-0.19036 0.15353-0.34403 0.34373-0.34403h3.144c0.1902 0 0.34373 0.15367 0.34373 0.34403 0 0.19034-0.15353 0.344-0.34373 0.344zm-0.29332-24.273c0.3002 0 0.54539 0.24539 0.54539 0.54584 0 0.30043-0.2452 0.54583-0.54539 0.54583-0.30019 0-0.54538-0.2454-0.54538-0.54583 0-0.30045 0.24519-0.54584 0.54538-0.54584zm1.8332 0c0.3002 0 0.54539 0.24539 0.54539 0.54584 0 0.30043-0.24519 0.54583-0.54539 0.54583-0.30248 0-0.54538-0.2454-0.54538-0.54583 0-0.30045 0.24519-0.54584 0.54538-0.54584zm1.8332 0c0.30019 0 0.54538 0.24539 0.54538 0.54584 0 0.30043-0.2452 0.54583-0.54538 0.54583-0.30248 0-0.54539-0.2454-0.54539-0.54583 0-0.30045 0.24519-0.54584 0.54539-0.54584zm-9.3151 21.129h14.966v-18.366h-14.966zm14.966 0.68802h-14.966v1.8622c0 0.59631 0.2452 1.1398 0.63704 1.5343 0.39415 0.39446 0.93724 0.63756 1.533 0.63756h10.624c0.59581 0 1.1389-0.24539 1.533-0.63756 0.39414-0.39447 0.63704-0.938 0.63704-1.5343v-1.8622zm-14.966-19.742h14.966v-0.85775c0-0.59629-0.2452-1.1398-0.63705-1.5343-0.39414-0.39446-0.93724-0.63756-1.5353-0.63756h-10.624c-0.5958 0-1.1389 0.2431-1.533 0.63756-0.39414 0.39446-0.63704 0.93799-0.63704 1.5343z" opacity=".5" stroke-width=".26458"/>
  <g fill="none" stroke="#000" stroke-linecap="round">
   <rect x="46.902" y="112.15" width="6.8891" height="6.8891" rx=".79375" ry=".79375" opacity=".5" stop-color="#000000" stroke-width=".665"/>
   <g stroke-width=".765">
    <path d="m40.88 120.81h13.052" opacity=".5"/>
    <path d="m40.88 123.98h13.052" opacity=".5"/>
    <path d="m40.88 127.16h13.052" opacity=".5"/>
   </g>
   <circle cx="48.978" cy="114.18" r=".45684" opacity=".5" stop-color="#000000" stroke-width=".765"/>
   <circle cx="51.661" cy="114.18" r=".45684" opacity=".5" stop-color="#000000" stroke-width=".765"/>
   <path d="m48.038 116.96 0.53069 0.9192h3.5453l0.57359-0.99351" opacity=".5" stroke-linejoin="round" stroke-width=".365"/>
   <path d="m50.278 115.7v0.99376" opacity=".5" stroke-width=".465"/>
  </g>
 </g>
</svg>
