<?xml version="1.0" encoding="UTF-8"?>
<!DOCTYPE svg PUBLIC "-//W3C//DTD SVG 1.1//EN" "http://www.w3.org/Graphics/SVG/1.1/DTD/svg11.dtd">
<!-- Creator: CorelDRAW -->
<svg xmlns="http://www.w3.org/2000/svg" xml:space="preserve" width="1200px" height="1200px" style="shape-rendering:geometricPrecision; text-rendering:geometricPrecision; image-rendering:optimizeQuality; fill-rule:evenodd; clip-rule:evenodd"
viewBox="0 0 102.46 102.46"
 xmlns:xlink="http://www.w3.org/1999/xlink">
 <defs>
  <style type="text/css">
   <![CDATA[
    .fil1 {fill:white}
    .fil0 {fill:#0063A6}
   ]]>
  </style>
 </defs>
 <g id="Ebene_x0020_1">
  <metadata id="CorelCorpID_0Corel-Layer"/>
  <g id="_225526832">
   <circle id="_168894400" class="fil0" cx="51.2302" cy="51.2301" r="51.2302"/>
   <path id="_168893968" class="fil1" d="M73.2859 18.2569l0 8.16054 -10.5867 0c-13.3623,0 -19.8474,10.5026 -23.7321,20.1589 -1.7136,4.2594 -4.80347,11.5487 -7.42254,14.6331 -4.27504,5.03482 -9.45178,3.80558 -18.2502,3.80558 -0.319919,0.477794 -0.661618,0.734251 -0.661618,1.54395l0 7.94004c0,1.02968 0.514163,1.54395 1.54384,1.54395l9.48398 0c25.3485,0 23.1949,-38.5976 37.4947,-38.5976l12.1306 0 0 8.38115c0,0.47644 0.885873,1.32334 1.10283,1.32334 1.39764,0 6.88545,-6.11275 8.10583,-7.33313 1.22038,-1.22049 7.33313,-6.70819 7.33313,-8.10583 0,-0.767806 -14.3123,-14.9979 -15.2183,-14.9979 -0.686836,0 -1.32344,0.697778 -1.32344,1.54395zm-60.6531 9.70449l0 7.94014c0,2.40554 4.7348,1.54384 7.05781,1.54384 2.87865,0 5.86681,-0.211334 7.87407,0.727581 2.92502,1.36815 7.0452,6.46122 7.78539,9.63852 0.892543,-1.28426 1.94953,-4.35798 2.79278,-6.02948 0.981641,-1.94609 2.02706,-3.9646 3.1623,-5.65996 -3.71023,-5.54075 -9.44855,-9.70459 -18.7474,-9.70459l-8.82226 0c-0.712992,0 -1.10273,0.800631 -1.10273,1.54395zm31.9808 38.3769c3.77984,5.64464 9.31048,9.70459 18.7474,9.70459l9.92499 0 0 8.38115c0,0.476335 0.885873,1.32334 1.10283,1.32334 1.39764,0 6.88545,-6.11285 8.10583,-7.33323 1.22038,-1.22038 7.33313,-6.70819 7.33313,-8.10583 0,-0.767701 -14.3123,-14.9978 -15.2183,-14.9978 -0.686836,0 -1.32344,0.697778 -1.32344,1.54384l0 8.16064 -9.26338 0c-4.48501,0 -6.56105,-0.72977 -8.87781,-3.03225 -1.5849,-1.57521 -4.33037,-6.99216 -4.7967,-7.33396 -0.61389,2.63532 -4.31703,9.57277 -5.73447,11.6895z"/>
  </g>
 </g>
</svg>
