<svg width="24.696mm" height="24.696mm" version="1.1" viewBox="0 0 24.696 24.696" xmlns="http://www.w3.org/2000/svg">
 <g transform="translate(-123.63 -126.18)">
  <g transform="matrix(.41161 0 0 .41161 123.63 126.18)" opacity=".5" stroke-width=".4859">
   <g stroke-width=".4859">
    <path d="m45.563 29.174-22-15c-0.307-0.208-0.703-0.231-1.031-0.058-0.327 0.173-0.532 0.513-0.532 0.884v30c0 0.371 0.205 0.711 0.533 0.884 0.146 0.078 0.307 0.116 0.467 0.116 0.197 0 0.394-0.059 0.563-0.174l22-15c0.273-0.186 0.437-0.495 0.437-0.826s-0.164-0.64-0.437-0.826zm-21.563 13.933v-26.214l19.225 13.107z"/>
    <path d="m30 0c-16.542 0-30 13.458-30 30s13.458 30 30 30 30-13.458 30-30-13.458-30-30-30zm0 58c-15.439 0-28-12.561-28-28s12.561-28 28-28 28 12.561 28 28-12.561 28-28 28z"/>
   </g>
  </g>
 </g>
</svg>
