<?xml version="1.0" encoding="UTF-8" standalone="no"?>
<svg
   xmlns:dc="http://purl.org/dc/elements/1.1/"
   xmlns:cc="http://creativecommons.org/ns#"
   xmlns:rdf="http://www.w3.org/1999/02/22-rdf-syntax-ns#"
   xmlns:svg="http://www.w3.org/2000/svg"
   xmlns="http://www.w3.org/2000/svg"
   xmlns:sodipodi="http://sodipodi.sourceforge.net/DTD/sodipodi-0.dtd"
   xmlns:inkscape="http://www.inkscape.org/namespaces/inkscape"
   width="35.318mm"
   height="9.5551mm"
   version="1.1"
   viewBox="0 0 35.318 9.5551"
   id="svg102"
   sodipodi:docname="storegoogle.svg"
   inkscape:version="1.0.1 (3bc2e813f5, 2020-09-07)">
  <metadata
     id="metadata106">
    <rdf:RDF>
      <cc:Work
         rdf:about="">
        <dc:format>image/svg+xml</dc:format>
        <dc:type
           rdf:resource="http://purl.org/dc/dcmitype/StillImage" />
      </cc:Work>
    </rdf:RDF>
  </metadata>
  <sodipodi:namedview
     pagecolor="#ffffff"
     bordercolor="#666666"
     borderopacity="1"
     objecttolerance="10"
     gridtolerance="10"
     guidetolerance="10"
     inkscape:pageopacity="0"
     inkscape:pageshadow="2"
     inkscape:window-width="1920"
     inkscape:window-height="1016"
     id="namedview104"
     showgrid="false"
     inkscape:zoom="8.9672757"
     inkscape:cx="66.742679"
     inkscape:cy="18.056883"
     inkscape:window-x="0"
     inkscape:window-y="27"
     inkscape:window-maximized="1"
     inkscape:current-layer="svg102" />
  <defs
     id="defs28">
    <linearGradient
       id="SVGID_4_"
       x1="1.744"
       x2="272.3"
       y1="345.52"
       y2="345.52"
       gradientTransform="matrix(1.5257,0,0,1.5257,51.512,9.4523)"
       gradientUnits="userSpaceOnUse">
      <stop
         stop-color="#ec3b50"
         offset="0"
         id="stop2" />
      <stop
         stop-color="#e7515b"
         offset="1"
         id="stop4" />
    </linearGradient>
    <linearGradient
       id="SVGID_3_"
       x1="179.9"
       x2="407.98"
       y1="229.46"
       y2="229.46"
       gradientTransform="matrix(1.5257,0,0,1.5257,51.512,9.4523)"
       gradientUnits="userSpaceOnUse">
      <stop
         stop-color="#faa51a"
         offset="0"
         id="stop7" />
      <stop
         stop-color="#fab716"
         offset=".387"
         id="stop9" />
      <stop
         stop-color="#fac412"
         offset=".741"
         id="stop11" />
      <stop
         stop-color="#fac80f"
         offset="1"
         id="stop13" />
    </linearGradient>
    <linearGradient
       id="SVGID_2_"
       x1=".152"
       x2="179.9"
       y1="223.39"
       y2="223.39"
       gradientTransform="matrix(1.5257,0,0,1.5257,51.512,9.4523)"
       gradientUnits="userSpaceOnUse">
      <stop
         stop-color="#3ec6f2"
         offset="0"
         id="stop16" />
      <stop
         stop-color="#45afe3"
         offset="1"
         id="stop18" />
    </linearGradient>
    <linearGradient
       id="SVGID_1_"
       x2="261.75"
       y1="112.09"
       y2="112.09"
       gradientTransform="matrix(1.5257,0,0,1.5257,51.512,9.4523)"
       gradientUnits="userSpaceOnUse">
      <stop
         stop-color="#63be6b"
         offset="0"
         id="stop21" />
      <stop
         stop-color="#5bbc6a"
         offset=".506"
         id="stop23" />
      <stop
         stop-color="#4ab96a"
         offset="1"
         id="stop25" />
    </linearGradient>
  </defs>
  <rect
     x="0.25000009"
     y="0.24999972"
     width="34.818001"
     height="9.0551004"
     rx="0.79374999"
     ry="0.79374999"
     fill="#ffffff"
     stop-color="#000000"
     stroke="#000000"
     stroke-width="0.5"
     id="rect30" />
  <path
     d="M 10.137,6.5934 C 10.0387,6.82049 9.92235,7.02953 9.78754,7.22172 9.60378,7.48372 9.45332,7.66507 9.33737,7.76578 9.15762,7.93108 8.96503,8.01574 8.75881,8.02056 8.61076,8.02056 8.43222,7.97843 8.22438,7.89297 8.01586,7.8079 7.82424,7.76578 7.64902,7.76578 7.46526,7.76578 7.26818,7.80791 7.05738,7.89297 6.84626,7.97843 6.67618,8.02297 6.54614,8.02738 6.34837,8.03578 6.15126,7.94874 5.9545,7.76578 5.82892,7.65625 5.67184,7.46847 5.48366,7.20246 5.28177,6.9184 5.11578,6.58899 4.98574,6.21345 4.84648,5.80781 4.77666,5.41502 4.77666,5.03475 4.77666,4.59914 4.87079,4.22344 5.05932,3.90855 5.20749,3.65566 5.40462,3.45617 5.65133,3.30973 5.89804,3.16328 6.16461,3.08866 6.45169,3.08388 c 0.15708,0 0.36306,0.04859 0.61905,0.14408 0.25526,0.09581 0.41915,0.1444 0.49102,0.1444 0.05372,0 0.2358,-0.05681 0.54446,-0.17008 0.29189,-0.10504 0.53824,-0.14853 0.74006,-0.1314 0.54687,0.04413 0.95772,0.25971 1.231,0.6481 -0.48909,0.29634 -0.73103,0.71141 -0.72621,1.2439 0.0044,0.41474 0.15487,0.75988 0.45057,1.0339 0.13401,0.12719 0.28366,0.22549 0.45017,0.2953 C 10.2157,6.3968 10.17759,6.4971 10.13706,6.5934 Z M 8.8828,1.658 c 0,0.32508 -0.11876,0.6286 -0.35548,0.90953 C 8.24165,2.90151 7.89612,3.0945 7.52142,3.06404 7.51672,3.02504 7.51392,2.984 7.51392,2.94086 c 0,-0.31207 0.13585,-0.64605 0.37711,-0.91912 0.12045,-0.13826 0.27364,-0.25322 0.4594,-0.34493 0.18536,-0.09034 0.3607,-0.1403 0.5256,-0.14885 0.0048,0.04346 0.0069,0.08691 0.0069,0.13003 z"
     stroke-width="0.22286"
     id="path32" />
  <text
     x="13.74123"
     y="3.9830587"
     fill="#000000"
     font-family="sans-serif"
     font-size="1.7639px"
     letter-spacing="0px"
     stroke-width="0.26458"
     word-spacing="0px"
     style="line-height:1.25"
     xml:space="preserve"
     id="text36"><tspan
       x="13.74123"
       y="3.9830587"
       fill="#000000"
       font-family="'Geometr231 BT'"
       font-size="1.7639px"
       stroke-width="0.26458"
       id="tspan34">DOWNLOAD ON THE</tspan></text>
  <text
     x="13.861813"
     y="7.5009475"
     fill="#000000"
     font-family="sans-serif"
     font-size="3.5278px"
     letter-spacing="0px"
     stroke-width="0.26458"
     word-spacing="0px"
     style="line-height:1.25"
     xml:space="preserve"
     id="text40"><tspan
       x="13.861813"
       y="7.5009475"
       fill="#000000"
       font-family="'Geometr231 BT'"
       font-size="3.5278px"
       stroke-width="0.26458"
       id="tspan38">Apple Store</tspan></text>
  <rect
     x="0.25000009"
     y="0.24999972"
     width="34.818001"
     height="9.0551004"
     rx="0.79374999"
     ry="0.79374999"
     fill="#ffffff"
     stop-color="#000000"
     stroke="#000000"
     stroke-width="0.5"
     id="rect42"
     style="stroke:#0063a6;stroke-opacity:1" />
  <g
     transform="matrix(0.92857,0,0,0.92857,-47.782,-8.77718)"
     stroke-width="1.5257"
     id="g52">
    <path
       class="st0"
       d="m 60.526,13.231 -3.699,-2.1142 c -0.04648,-0.02699 -0.10495,-0.02549 -0.14994,0.0015 -0.04648,0.02699 -0.07497,0.07497 -0.07497,0.12895 0,0 0.0015,0.19492 0.003,0.5158 l 2.6944,2.6944 z"
       fill="url(#SVGID_1_)"
       id="path44"
       style="fill:url(#SVGID_1_)" />
    <path
       class="st1"
       d="m 56.605,11.763 c 0.0045,1.1575 0.018,3.9674 0.024,5.3664 l 2.6719,-2.6719 z"
       fill="url(#SVGID_2_)"
       id="path46"
       style="fill:url(#SVGID_2_)" />
    <path
       class="st2"
       d="m 62.643,14.441 -2.1172,-1.21 -1.228,1.2265 1.3855,1.3855 1.9612,-1.1425 c 0.04648,-0.02699 0.07497,-0.07647 0.07497,-0.12895 0,-0.05398 -0.02998,-0.10346 -0.07647,-0.13045 z"
       fill="url(#SVGID_3_)"
       id="path48"
       style="fill:url(#SVGID_3_)" />
    <path
       class="st3"
       d="m 56.628,17.129 c 0.003,0.4993 0.0045,0.81868 0.0045,0.81868 0,0.05398 0.02849,0.10346 0.07497,0.12895 0.04648,0.02699 0.10346,0.02699 0.14994,0 l 3.828,-2.2326 -1.3855,-1.3855 z"
       fill="url(#SVGID_4_)"
       id="path50"
       style="fill:url(#SVGID_4_)" />
  </g>
  <g
     stroke-width="0.26458"
     aria-label="DOWNLOAD ON "
     id="g74"
     transform="translate(-61.104,-9.2526)">
    <path
       d="m 75.098,12.084 v 1.0404 h 0.08096 q 0.24288,0 0.38844,-0.14125 0.14642,-0.14211 0.14642,-0.37552 0,-0.23599 -0.14297,-0.37982 -0.14297,-0.14383 -0.37982,-0.14383 z m -0.12144,-0.10938 h 0.19551 q 0.30059,0 0.48404,0.17398 0.18431,0.17312 0.18431,0.45045 0,0.28681 -0.18776,0.46165 -0.1869,0.17484 -0.5004,0.17484 h -0.1757 z"
       id="path54" />
    <path
       d="m 76.641,12.057 q -0.22738,0 -0.38155,0.15848 -0.15331,0.15761 -0.15331,0.38844 0,0.23083 0.15331,0.39016 0.15417,0.15848 0.38155,0.15848 0.22652,0 0.38068,-0.15848 0.15503,-0.15934 0.15503,-0.39016 0,-0.22996 -0.15417,-0.38844 Q 76.86837,12.057 76.64099,12.057 Z m 0,-0.11627 q 0.12144,0 0.23254,0.04048 0.1111,0.04048 0.19723,0.11627 0.11283,0.09905 0.17312,0.23082 0.06029,0.13091 0.06029,0.27561 0,0.12402 -0.04565,0.24202 -0.04565,0.11713 -0.13092,0.21101 -0.09388,0.10335 -0.21876,0.15761 -0.12402,0.05426 -0.26786,0.05426 -0.1223,0 -0.23341,-0.04048 -0.11024,-0.04048 -0.19551,-0.11627 -0.11197,-0.09905 -0.17226,-0.23082 -0.06029,-0.13178 -0.06029,-0.27733 0,-0.1447 0.05943,-0.27475 0.06029,-0.13092 0.17312,-0.23168 0.08527,-0.07579 0.19551,-0.11627 0.1111,-0.04048 0.23341,-0.04048 z"
       id="path56" />
    <path
       d="m 77.488,11.967 0.4272,1.0361 0.19896,-0.47284 -0.23599,-0.55036 0.12144,-0.01292 0.17656,0.42892 0.17656,-0.42892 0.1111,0.01292 -0.2291,0.54002 0.19896,0.48146 0.40738,-1.0344 0.12144,0.01292 -0.52882,1.2945 -0.26441,-0.62787 -0.26269,0.62787 -0.53658,-1.2945 z"
       id="path58" />
    <path
       d="m 79.084,11.943 0.91296,1.0215 v -0.98961 l 0.12402,-0.01809 v 1.316 l -0.91382,-1.0249 v 0.98789 l -0.12316,0.0155 z"
       id="path60" />
    <path
       d="m 80.506,11.957 v 1.1627 h 0.56758 l -0.04393,0.11627 h -0.6451 v -1.2609 z"
       id="path62" />
    <path
       d="m 81.766,12.057 q -0.22738,0 -0.38155,0.15848 -0.15331,0.15761 -0.15331,0.38844 0,0.23083 0.15331,0.39016 0.15417,0.15848 0.38155,0.15848 0.22652,0 0.38069,-0.15848 0.15503,-0.15934 0.15503,-0.39016 0,-0.22996 -0.15417,-0.38844 Q 81.99338,12.057 81.766,12.057 Z m 0,-0.11627 q 0.12144,0 0.23255,0.04048 0.11111,0.04048 0.19723,0.11627 0.11283,0.09905 0.17312,0.23082 0.06029,0.13091 0.06029,0.27561 0,0.12402 -0.04565,0.24202 -0.04565,0.11713 -0.13092,0.21101 -0.09388,0.10335 -0.21876,0.15761 -0.12402,0.05426 -0.26786,0.05426 -0.1223,0 -0.23341,-0.04048 -0.11024,-0.04048 -0.19551,-0.11627 -0.11197,-0.09905 -0.17226,-0.23082 -0.06029,-0.13178 -0.06029,-0.27733 0,-0.1447 0.05943,-0.27475 0.06029,-0.13092 0.17312,-0.23168 0.08527,-0.07579 0.19551,-0.11627 0.1111,-0.04048 0.23341,-0.04048 z"
       id="path64" />
    <path
       d="m 83.111,12.162 -0.20671,0.42806 h 0.40911 z m 0.0034,-0.22393 0.63476,1.2893 -0.11627,0.03187 -0.27216,-0.56328 h -0.51069 l -0.27216,0.56328 -0.10938,-0.03187 z"
       id="path66" />
    <path
       d="m 83.989,12.084 v 1.0404 h 0.08096 q 0.24288,0 0.38844,-0.14125 0.14642,-0.14211 0.14642,-0.37552 0,-0.23599 -0.14297,-0.37982 -0.14297,-0.14383 -0.37982,-0.14383 z m -0.12144,-0.10938 h 0.19551 q 0.30059,0 0.48404,0.17398 0.18431,0.17312 0.18431,0.45045 0,0.28681 -0.18776,0.46165 -0.1869,0.17484 -0.5004,0.17484 h -0.1757 z"
       id="path68" />
    <path
       d="m 86.023,12.057 q -0.22738,0 -0.38155,0.15848 -0.15331,0.15761 -0.15331,0.38844 0,0.23083 0.15331,0.39016 0.15417,0.15848 0.38155,0.15848 0.22652,0 0.38068,-0.15848 0.15503,-0.15934 0.15503,-0.39016 0,-0.22996 -0.15417,-0.38844 Q 86.25037,12.057 86.02299,12.057 Z m 0,-0.11627 q 0.12144,0 0.23254,0.04048 0.1111,0.04048 0.19723,0.11627 0.11283,0.09905 0.17312,0.23082 0.06029,0.13091 0.06029,0.27561 0,0.12402 -0.04565,0.24202 -0.04565,0.11713 -0.13092,0.21101 -0.09388,0.10335 -0.21876,0.15761 -0.12402,0.05426 -0.26786,0.05426 -0.1223,0 -0.23341,-0.04048 -0.11024,-0.04048 -0.19551,-0.11627 -0.11197,-0.09905 -0.17226,-0.23082 -0.06029,-0.13178 -0.06029,-0.27733 0,-0.1447 0.05943,-0.27475 0.06029,-0.13092 0.17312,-0.23168 0.08527,-0.07579 0.19551,-0.11627 0.1111,-0.04048 0.23341,-0.04048 z"
       id="path70" />
    <path
       d="m 86.882,11.943 0.91296,1.0215 v -0.98961 l 0.12402,-0.01809 v 1.316 l -0.91382,-1.0249 v 0.98789 l -0.12316,0.0155 z"
       id="path72" />
  </g>
  <g
     stroke-width="0.26458"
     aria-label="Google Play"
     id="g96"
     transform="translate(-61.104,-9.2526)">
    <path
       d="m 77.298,14.499 -0.14125,0.18087 q -0.17398,-0.13953 -0.36346,-0.20843 -0.18776,-0.07062 -0.39102,-0.07062 -0.44442,0 -0.74931,0.31695 -0.30317,0.31523 -0.30317,0.77343 0,0.4582 0.30662,0.7786 0.30834,0.31867 0.75276,0.31867 0.20326,0 0.38585,-0.0689 0.18431,-0.0689 0.31867,-0.19637 v -0.71658 h -0.57533 v -0.22221 h 0.82338 v 1.0697 q -0.21704,0.17915 -0.45648,0.27044 -0.23771,0.08957 -0.4961,0.08957 -0.23944,0 -0.45648,-0.07579 -0.21532,-0.07579 -0.38069,-0.21704 -0.23082,-0.19809 -0.35312,-0.45992 -0.1223,-0.26183 -0.1223,-0.55983 0,-0.26355 0.09991,-0.50988 0.09991,-0.24633 0.28422,-0.43581 0.18431,-0.18948 0.41858,-0.28594 0.23599,-0.09819 0.50643,-0.09819 0.26527,0 0.49265,0.08441 0.22738,0.08268 0.39963,0.24288 z"
       id="path76" />
    <path
       d="m 78.402,15.61 q -0.19637,0 -0.33245,0.14297 -0.13608,0.14125 -0.13608,0.34451 0,0.20498 0.13436,0.34623 0.13608,0.14125 0.33418,0.14125 0.19465,0 0.32901,-0.14297 0.13608,-0.14297 0.13608,-0.34451 0,-0.20154 -0.13608,-0.34451 Q 78.59666,15.61 78.40201,15.61 Z m -0.0034,-0.2136 q 0.28939,0 0.49265,0.20671 0.20498,0.20498 0.20498,0.49437 0,0.28939 -0.20326,0.49437 -0.20326,0.20498 -0.49437,0.20498 -0.29111,0 -0.49437,-0.20326 -0.20154,-0.20498 -0.20154,-0.4961 0,-0.29111 0.20154,-0.4961 0.20326,-0.20498 0.49437,-0.20498 z"
       id="path78" />
    <path
       d="m 80.001,15.61 q -0.19637,0 -0.33245,0.14297 -0.13608,0.14125 -0.13608,0.34451 0,0.20498 0.13436,0.34623 0.13608,0.14125 0.33418,0.14125 0.19465,0 0.32901,-0.14297 0.13608,-0.14297 0.13608,-0.34451 0,-0.20154 -0.13608,-0.34451 Q 80.19566,15.61 80.00101,15.61 Z m -0.0034,-0.2136 q 0.28939,0 0.49265,0.20671 0.20498,0.20498 0.20498,0.49437 0,0.28939 -0.20326,0.49437 -0.20326,0.20498 -0.49437,0.20498 -0.29111,0 -0.49438,-0.20326 -0.20154,-0.20498 -0.20154,-0.4961 0,-0.29111 0.20154,-0.4961 0.20326,-0.20498 0.49438,-0.20498 z"
       id="path80" />
    <path
       d="m 81.482,15.622 q -0.13953,0 -0.23771,0.09302 -0.09646,0.09302 -0.09646,0.22738 0,0.13264 0.09646,0.22566 0.09646,0.09129 0.23427,0.09129 0.13953,0 0.23771,-0.09302 0.09819,-0.09302 0.09819,-0.22049 0,-0.13436 -0.09646,-0.2291 Q 81.62326,15.622 81.48201,15.622 Z m 0.58222,-0.20498 -0.06029,0.1757 q -0.0086,0 -0.02412,0.0017 -0.01378,0.0017 -0.02067,0.0017 h -0.07752 q 0.07579,0.0689 0.11713,0.1602 0.04134,0.0913 0.04134,0.18948 0,0.13436 -0.07924,0.24633 -0.07752,0.11024 -0.21015,0.16364 0.12919,0.07924 0.19637,0.1912 0.0689,0.11024 0.0689,0.24633 0,0.23771 -0.16364,0.38585 -0.16192,0.14986 -0.42203,0.14986 -0.1447,0 -0.27389,-0.06718 -0.12919,-0.06546 -0.2136,-0.18431 l 0.13091,-0.18604 q 0.05684,0.10852 0.15331,0.17053 0.09646,0.06201 0.21015,0.06201 0.1602,0 0.26011,-0.0913 0.09991,-0.0913 0.09991,-0.23599 0,-0.13953 -0.09129,-0.23255 -0.0913,-0.09302 -0.22738,-0.09302 -0.08957,0 -0.16537,0.03445 -0.07579,0.03445 -0.1447,0.1068 l -0.11197,-0.14814 q 0.04134,-0.03273 0.07751,-0.05685 0.0379,-0.02584 0.06201,-0.0379 -0.13264,-0.07062 -0.20154,-0.17915 -0.0689,-0.11024 -0.0689,-0.25149 0,-0.23082 0.16364,-0.37552 0.16364,-0.14642 0.42892,-0.14642 0.02584,0 0.1223,0.0086 0.09646,0.0086 0.16709,0.0086 0.03101,0 0.08268,-0.0034 0.0534,-0.0034 0.17398,-0.01378 z"
       id="path82" />
    <path
       d="m 82.619,14.192 v 2.5614 l -0.22221,0.03101 v -2.5563 z"
       id="path84" />
    <path
       d="m 84.197,15.734 -0.97497,0.60634 q 0.06373,0.11369 0.16364,0.1757 0.10163,0.06201 0.22566,0.06201 0.11713,0 0.21876,-0.0379 0.10163,-0.03962 0.19637,-0.11886 l 0.05684,0.20154 q -0.09646,0.08441 -0.22049,0.12919 -0.1223,0.04479 -0.25494,0.04479 -0.27733,0 -0.47026,-0.20671 -0.19293,-0.20671 -0.19293,-0.4961 0,-0.298 0.19465,-0.4961 0.19637,-0.19809 0.48232,-0.19809 0.16881,0 0.31006,0.08268 0.14297,0.08268 0.26527,0.25149 z m -0.28939,-0.02756 q -0.06201,-0.05857 -0.13436,-0.08613 -0.07235,-0.02756 -0.16192,-0.02756 -0.19293,0 -0.33073,0.1378 -0.13608,0.1378 -0.13608,0.3359 0,0.03445 0.01206,0.10163 0.0017,0.0069 0.0017,0.01033 z"
       id="path86" />
    <path
       d="m 85.699,15.689 q 0.02928,0 0.07579,0.0034 0.04651,0.0034 0.05857,0.0034 0.3514,0 0.54088,-0.16192 0.18948,-0.16364 0.18948,-0.46337 0,-0.28939 -0.18259,-0.45476 -0.18259,-0.16536 -0.50643,-0.16536 H 85.699 Z m -0.24633,-1.4573 h 0.42203 q 0.43753,0 0.68902,0.22738 0.25322,0.22738 0.25322,0.61495 0,0.39274 -0.26355,0.6184 -0.26355,0.22566 -0.72348,0.22566 -0.04306,0 -0.07235,0 -0.02928,-0.0017 -0.05857,-0.0034 v 0.83889 l -0.24633,0.03101 z"
       id="path88" />
    <path
       d="m 87.379,14.192 v 2.5614 l -0.22221,0.03101 v -2.5563 z"
       id="path90" />
    <path
       d="m 88.2,16.051 q -0.11713,0 -0.20326,0.08268 -0.08613,0.08096 -0.08613,0.19293 0,0.11886 0.08268,0.20154 0.08441,0.08096 0.20671,0.08096 0.1223,0 0.20326,-0.08096 0.08268,-0.08096 0.08268,-0.19809 0,-0.11541 -0.08268,-0.19637 Q 88.32058,16.05101 88.2,16.05101 Z m 0.49782,-0.23599 v 0.92846 l -0.20498,0.0379 V 16.616 q -0.06029,0.08785 -0.14986,0.13436 -0.08957,0.04651 -0.1981,0.04651 -0.19293,0 -0.3204,-0.13092 -0.12575,-0.13264 -0.12575,-0.3359 0,-0.19637 0.13091,-0.32729 0.13264,-0.13091 0.33934,-0.13091 0.09819,0 0.17742,0.03962 0.08096,0.03962 0.13608,0.11541 v -0.19809 q 0,-0.11369 -0.06201,-0.16192 -0.06201,-0.04823 -0.2136,-0.04823 -0.06373,0 -0.13264,0.0086 -0.0689,0.0069 -0.14125,0.02239 l 0.0534,-0.21532 q 0.09819,-0.0086 0.16709,-0.01206 0.0689,-0.0052 0.11713,-0.0052 0.2446,0 0.3359,0.08268 0.0913,0.08268 0.0913,0.31523 z"
       id="path92" />
    <path
       d="m 89.132,15.417 0.4737,0.97325 0.45476,-0.96636 0.20843,0.07063 -0.90779,1.8724 -0.22221,-0.04479 0.33934,-0.68213 -0.565,-1.1489 z"
       id="path94" />
  </g>
  <style
     id="style100">.st0{fill:url(#SVGID_1_)}.st1{fill:url(#SVGID_2_)}.st2{fill:url(#SVGID_3_)}.st3{fill:url(#SVGID_4_)}</style>
</svg>
