<?xml version="1.0" encoding="UTF-8" standalone="no"?>
<svg
   xmlns:dc="http://purl.org/dc/elements/1.1/"
   xmlns:cc="http://creativecommons.org/ns#"
   xmlns:rdf="http://www.w3.org/1999/02/22-rdf-syntax-ns#"
   xmlns:svg="http://www.w3.org/2000/svg"
   xmlns="http://www.w3.org/2000/svg"
   xmlns:sodipodi="http://sodipodi.sourceforge.net/DTD/sodipodi-0.dtd"
   xmlns:inkscape="http://www.inkscape.org/namespaces/inkscape"
   width="35.318mm"
   height="9.5551mm"
   version="1.1"
   viewBox="0 0 35.318 9.5551"
   id="svg94"
   sodipodi:docname="storeapple.svg"
   inkscape:version="1.0.1 (3bc2e813f5, 2020-09-07)">
  <metadata
     id="metadata98">
    <rdf:RDF>
      <cc:Work
         rdf:about="">
        <dc:format>image/svg+xml</dc:format>
        <dc:type
           rdf:resource="http://purl.org/dc/dcmitype/StillImage" />
      </cc:Work>
    </rdf:RDF>
  </metadata>
  <sodipodi:namedview
     pagecolor="#ffffff"
     bordercolor="#666666"
     borderopacity="1"
     objecttolerance="10"
     gridtolerance="10"
     guidetolerance="10"
     inkscape:pageopacity="0"
     inkscape:pageshadow="2"
     inkscape:window-width="1920"
     inkscape:window-height="1016"
     id="namedview96"
     showgrid="false"
     inkscape:zoom="8.9672757"
     inkscape:cx="66.742679"
     inkscape:cy="18.056883"
     inkscape:window-x="0"
     inkscape:window-y="27"
     inkscape:window-maximized="1"
     inkscape:current-layer="svg94" />
  <defs
     id="defs28">
    <linearGradient
       id="SVGID_4_"
       x1="1.744"
       x2="272.3"
       y1="345.52"
       y2="345.52"
       gradientTransform="matrix(1.5257 0 0 1.5257 -14.293 -.512)"
       gradientUnits="userSpaceOnUse">
      <stop
         stop-color="#ec3b50"
         offset="0"
         id="stop2" />
      <stop
         stop-color="#e7515b"
         offset="1"
         id="stop4" />
    </linearGradient>
    <linearGradient
       id="SVGID_3_"
       x1="179.9"
       x2="407.98"
       y1="229.46"
       y2="229.46"
       gradientTransform="matrix(1.5257 0 0 1.5257 -14.293 -.512)"
       gradientUnits="userSpaceOnUse">
      <stop
         stop-color="#faa51a"
         offset="0"
         id="stop7" />
      <stop
         stop-color="#fab716"
         offset=".387"
         id="stop9" />
      <stop
         stop-color="#fac412"
         offset=".741"
         id="stop11" />
      <stop
         stop-color="#fac80f"
         offset="1"
         id="stop13" />
    </linearGradient>
    <linearGradient
       id="SVGID_2_"
       x1=".152"
       x2="179.9"
       y1="223.39"
       y2="223.39"
       gradientTransform="matrix(1.5257 0 0 1.5257 -14.293 -.512)"
       gradientUnits="userSpaceOnUse">
      <stop
         stop-color="#3ec6f2"
         offset="0"
         id="stop16" />
      <stop
         stop-color="#45afe3"
         offset="1"
         id="stop18" />
    </linearGradient>
    <linearGradient
       id="SVGID_1_"
       x2="261.75"
       y1="112.09"
       y2="112.09"
       gradientTransform="matrix(1.5257 0 0 1.5257 -14.293 -.512)"
       gradientUnits="userSpaceOnUse">
      <stop
         stop-color="#63be6b"
         offset="0"
         id="stop21" />
      <stop
         stop-color="#5bbc6a"
         offset=".506"
         id="stop23" />
      <stop
         stop-color="#4ab96a"
         offset="1"
         id="stop25" />
    </linearGradient>
  </defs>
  <rect
     x="0.24999957"
     y="0.24999957"
     width="34.818001"
     height="9.0551004"
     rx="0.79374999"
     ry="0.79374999"
     fill="#ffffff"
     stop-color="#000000"
     stroke="#000000"
     stroke-width="0.5"
     id="rect30" />
  <path
     d="M 10.137,6.5934 C 10.0387,6.82049 9.92235,7.02953 9.78754,7.22172 9.60378,7.48372 9.45332,7.66507 9.33737,7.76578 9.15762,7.93108 8.96503,8.01574 8.75881,8.02056 8.61076,8.02056 8.43222,7.97843 8.22438,7.89297 8.01586,7.8079 7.82424,7.76578 7.64902,7.76578 7.46526,7.76578 7.26818,7.80791 7.05738,7.89297 6.84626,7.97843 6.67618,8.02297 6.54614,8.02738 6.34837,8.03578 6.15126,7.94874 5.9545,7.76578 5.82892,7.65625 5.67184,7.46847 5.48366,7.20246 5.28177,6.9184 5.11578,6.58899 4.98574,6.21345 4.84648,5.80781 4.77666,5.41502 4.77666,5.03475 4.77666,4.59914 4.87079,4.22344 5.05932,3.90855 5.20749,3.65566 5.40462,3.45617 5.65133,3.30973 5.89804,3.16328 6.16461,3.08866 6.45169,3.08388 c 0.15708,0 0.36306,0.04859 0.61905,0.14408 0.25526,0.09581 0.41915,0.1444 0.49102,0.1444 0.05372,0 0.2358,-0.05681 0.54446,-0.17008 0.29189,-0.10504 0.53824,-0.14853 0.74006,-0.1314 0.54687,0.04413 0.95772,0.25971 1.231,0.6481 -0.48909,0.29634 -0.73103,0.71141 -0.72621,1.2439 0.0044,0.41474 0.15487,0.75988 0.45057,1.0339 0.13401,0.12719 0.28366,0.22549 0.45017,0.2953 C 10.2157,6.3968 10.17759,6.4971 10.13706,6.5934 Z M 8.8828,1.658 c 0,0.32508 -0.11876,0.6286 -0.35548,0.90953 C 8.24165,2.90151 7.89612,3.0945 7.52142,3.06404 7.51672,3.02504 7.51392,2.984 7.51392,2.94086 c 0,-0.31207 0.13585,-0.64605 0.37711,-0.91912 0.12045,-0.13826 0.27364,-0.25322 0.4594,-0.34493 0.18536,-0.09034 0.3607,-0.1403 0.5256,-0.14885 0.0048,0.04346 0.0069,0.08691 0.0069,0.13003 z"
     stroke-width="0.22286"
     id="path32" />
  <text
     x="13.741085"
     y="3.9830661"
     fill="#000000"
     font-family="sans-serif"
     font-size="1.7639px"
     letter-spacing="0px"
     stroke-width="0.26458"
     word-spacing="0px"
     style="line-height:1.25"
     xml:space="preserve"
     id="text36"><tspan
       x="13.741085"
       y="3.9830661"
       fill="#000000"
       font-family="'Geometr231 BT'"
       font-size="1.7639px"
       stroke-width="0.26458"
       id="tspan34">DOWNLOAD ON THE</tspan></text>
  <text
     x="13.861664"
     y="7.5009513"
     fill="#000000"
     font-family="sans-serif"
     font-size="3.5278px"
     letter-spacing="0px"
     stroke-width="0.26458"
     word-spacing="0px"
     style="line-height:1.25"
     xml:space="preserve"
     id="text40"><tspan
       x="13.861664"
       y="7.5009513"
       fill="#000000"
       font-family="'Geometr231 BT'"
       font-size="3.5278px"
       stroke-width="0.26458"
       id="tspan38">Apple Store</tspan></text>
  <rect
     x="0.24999957"
     y="0.24999957"
     width="34.818001"
     height="9.0551004"
     rx="0.79374999"
     ry="0.79374999"
     fill="#ffffff"
     stop-color="#000000"
     stroke="#000000"
     stroke-width="0.5"
     id="rect42"
     style="stroke:#0063a6;stroke-opacity:1" />
  <path
     d="M 10.137,6.5934 C 10.0387,6.82049 9.92235,7.02953 9.78754,7.22172 9.60378,7.48372 9.45332,7.66507 9.33737,7.76578 9.15762,7.93108 8.96503,8.01574 8.75881,8.02056 8.61076,8.02056 8.43222,7.97843 8.22438,7.89297 8.01586,7.8079 7.82424,7.76578 7.64902,7.76578 7.46526,7.76578 7.26818,7.80791 7.05738,7.89297 6.84626,7.97843 6.67618,8.02297 6.54614,8.02738 6.34837,8.03578 6.15126,7.94874 5.9545,7.76578 5.82892,7.65625 5.67184,7.46847 5.48366,7.20246 5.28177,6.9184 5.11578,6.58899 4.98574,6.21345 4.84648,5.80781 4.77666,5.41502 4.77666,5.03475 4.77666,4.59914 4.87079,4.22344 5.05932,3.90855 5.20749,3.65566 5.40462,3.45617 5.65133,3.30973 5.89804,3.16328 6.16461,3.08866 6.45169,3.08388 c 0.15708,0 0.36306,0.04859 0.61905,0.14408 0.25526,0.09581 0.41915,0.1444 0.49102,0.1444 0.05372,0 0.2358,-0.05681 0.54446,-0.17008 0.29189,-0.10504 0.53824,-0.14853 0.74006,-0.1314 0.54687,0.04413 0.95772,0.25971 1.231,0.6481 -0.48909,0.29634 -0.73103,0.71141 -0.72621,1.2439 0.0044,0.41474 0.15487,0.75988 0.45057,1.0339 0.13401,0.12719 0.28366,0.22549 0.45017,0.2953 C 10.2157,6.3968 10.17759,6.4971 10.13706,6.5934 Z M 8.8828,1.658 c 0,0.32508 -0.11876,0.6286 -0.35548,0.90953 C 8.24165,2.90151 7.89612,3.0945 7.52142,3.06404 7.51672,3.02504 7.51392,2.984 7.51392,2.94086 c 0,-0.31207 0.13585,-0.64605 0.37711,-0.91912 0.12045,-0.13826 0.27364,-0.25322 0.4594,-0.34493 0.18536,-0.09034 0.3607,-0.1403 0.5256,-0.14885 0.0048,0.04346 0.0069,0.08691 0.0069,0.13003 z"
     stroke-width="0.22286"
     id="path44" />
  <g
     stroke-width="0.26458"
     aria-label="DOWNLOAD ON "
     id="g66"
     transform="translate(-19.223,-9.2876)">
    <path
       d="m 33.216,12.119 v 1.0404 h 0.08096 q 0.24288,0 0.38844,-0.14125 0.14642,-0.14211 0.14642,-0.37552 0,-0.23599 -0.14297,-0.37982 -0.14297,-0.14383 -0.37982,-0.14383 z m -0.12144,-0.10938 h 0.19551 q 0.30059,0 0.48404,0.17398 0.18431,0.17312 0.18431,0.45045 0,0.28681 -0.18776,0.46164 -0.1869,0.17484 -0.5004,0.17484 h -0.1757 z"
       id="path46" />
    <path
       d="m 34.76,12.092 q -0.22738,0 -0.38155,0.15848 -0.15331,0.15762 -0.15331,0.38844 0,0.23082 0.15331,0.39016 0.15417,0.15848 0.38155,0.15848 0.22652,0 0.38068,-0.15848 0.15503,-0.15934 0.15503,-0.39016 0,-0.22996 -0.15417,-0.38844 Q 34.98737,12.092 34.75999,12.092 Z m 0,-0.11627 q 0.12144,0 0.23254,0.04048 0.1111,0.04048 0.19723,0.11627 0.11283,0.09905 0.17312,0.23082 0.06029,0.13091 0.06029,0.27561 0,0.12402 -0.04565,0.24202 -0.04565,0.11713 -0.13091,0.21101 -0.09388,0.10335 -0.21876,0.15761 -0.12402,0.05426 -0.26786,0.05426 -0.1223,0 -0.23341,-0.04048 -0.11024,-0.04048 -0.19551,-0.11627 -0.11197,-0.09905 -0.17226,-0.23082 -0.06029,-0.13178 -0.06029,-0.27733 0,-0.1447 0.05943,-0.27475 0.06029,-0.13091 0.17312,-0.23168 0.08527,-0.07579 0.19551,-0.11627 0.1111,-0.04048 0.23341,-0.04048 z"
       id="path48" />
    <path
       d="m 35.606,12.002 0.42719,1.0361 0.19896,-0.47284 -0.23599,-0.55036 0.12144,-0.01292 0.17656,0.42892 0.17656,-0.42892 0.1111,0.01292 -0.2291,0.54002 0.19896,0.48146 0.40738,-1.0344 0.12144,0.01292 -0.52883,1.2945 -0.26441,-0.62787 -0.26269,0.62787 -0.53658,-1.2945 z"
       id="path50" />
    <path
       d="m 37.203,11.978 0.91296,1.0215 v -0.98961 l 0.12402,-0.01809 v 1.316 l -0.91382,-1.0249 v 0.98789 l -0.12316,0.0155 z"
       id="path52" />
    <path
       d="m 38.624,11.992 v 1.1627 h 0.56758 l -0.04393,0.11627 h -0.6451 v -1.2609 z"
       id="path54" />
    <path
       d="m 39.884,12.092 q -0.22738,0 -0.38155,0.15848 -0.15331,0.15762 -0.15331,0.38844 0,0.23082 0.15331,0.39016 0.15417,0.15848 0.38155,0.15848 0.22652,0 0.38068,-0.15848 0.15503,-0.15934 0.15503,-0.39016 0,-0.22996 -0.15417,-0.38844 Q 40.11137,12.092 39.88399,12.092 Z m 0,-0.11627 q 0.12144,0 0.23254,0.04048 0.1111,0.04048 0.19723,0.11627 0.11283,0.09905 0.17312,0.23082 0.06029,0.13091 0.06029,0.27561 0,0.12402 -0.04565,0.24202 -0.04565,0.11713 -0.13091,0.21101 -0.09388,0.10335 -0.21876,0.15761 -0.12402,0.05426 -0.26786,0.05426 -0.1223,0 -0.23341,-0.04048 -0.11024,-0.04048 -0.19551,-0.11627 -0.11197,-0.09905 -0.17226,-0.23082 -0.06029,-0.13178 -0.06029,-0.27733 0,-0.1447 0.05943,-0.27475 0.06029,-0.13091 0.17312,-0.23168 0.08527,-0.07579 0.19551,-0.11627 0.1111,-0.04048 0.23341,-0.04048 z"
       id="path56" />
    <path
       d="m 41.23,12.197 -0.20671,0.42806 h 0.40911 z m 0.0034,-0.22393 0.63476,1.2893 -0.11627,0.03187 -0.27216,-0.56328 h -0.51074 l -0.27216,0.56328 -0.10938,-0.03187 z"
       id="path58" />
    <path
       d="m 42.108,12.119 v 1.0404 h 0.08096 q 0.24288,0 0.38844,-0.14125 0.14642,-0.14211 0.14642,-0.37552 0,-0.23599 -0.14297,-0.37982 -0.14297,-0.14383 -0.37982,-0.14383 z m -0.12144,-0.10938 h 0.19551 q 0.30059,0 0.48404,0.17398 0.18431,0.17312 0.18431,0.45045 0,0.28681 -0.18776,0.46164 -0.1869,0.17484 -0.5004,0.17484 h -0.1757 z"
       id="path60" />
    <path
       d="m 44.142,12.092 q -0.22738,0 -0.38155,0.15848 -0.15331,0.15762 -0.15331,0.38844 0,0.23082 0.15331,0.39016 0.15417,0.15848 0.38155,0.15848 0.22652,0 0.38069,-0.15848 0.15503,-0.15934 0.15503,-0.39016 0,-0.22996 -0.15417,-0.38844 Q 44.36938,12.092 44.142,12.092 Z m 0,-0.11627 q 0.12144,0 0.23255,0.04048 0.11111,0.04048 0.19723,0.11627 0.11283,0.09905 0.17312,0.23082 0.06029,0.13091 0.06029,0.27561 0,0.12402 -0.04565,0.24202 -0.04565,0.11713 -0.13091,0.21101 -0.09388,0.10335 -0.21876,0.15761 -0.12402,0.05426 -0.26786,0.05426 -0.1223,0 -0.23341,-0.04048 -0.11024,-0.04048 -0.19551,-0.11627 -0.11197,-0.09905 -0.17226,-0.23082 -0.06029,-0.13178 -0.06029,-0.27733 0,-0.1447 0.05943,-0.27475 0.06029,-0.13091 0.17312,-0.23168 0.08527,-0.07579 0.19551,-0.11627 0.1111,-0.04048 0.23341,-0.04048 z"
       id="path62" />
    <path
       d="m 45.001,11.978 0.91296,1.0215 v -0.98961 l 0.12402,-0.01809 v 1.316 l -0.91382,-1.0249 v 0.98789 l -0.12316,0.0155 z"
       id="path64" />
  </g>
  <g
     stroke-width="0.26458"
     aria-label="Apple Store"
     id="g88"
     transform="translate(-19.223,-9.2876)">
    <path
       d="m 34.38,14.641 -0.41341,0.85611 h 0.81822 z m 0.0069,-0.44787 1.2695,2.5787 -0.23254,0.06373 -0.54433,-1.1266 h -1.0215 l -0.54433,1.1266 -0.21876,-0.06373 z"
       id="path68" />
    <path
       d="m 36.053,16.584 v 0.78376 l -0.22221,0.03101 v -1.8983 L 36.053,15.46946 v 0.2291 q 0.08957,-0.1223 0.21876,-0.18948 0.12919,-0.06718 0.27733,-0.06718 0.28078,0 0.47543,0.20326 0.19637,0.20154 0.19637,0.49782 0,0.27905 -0.20154,0.48232 -0.20154,0.20326 -0.48404,0.20326 -0.15675,0 -0.28078,-0.06201 -0.1223,-0.06374 -0.20154,-0.18259 z m 0.46854,-0.9388 q -0.19809,0 -0.33418,0.14125 -0.13436,0.14125 -0.13436,0.34623 0,0.20498 0.13436,0.34624 0.13608,0.14125 0.33418,0.14125 0.19637,0 0.33245,-0.14297 0.13608,-0.14297 0.13608,-0.34451 0,-0.20154 -0.13608,-0.34451 -0.13608,-0.14297 -0.33245,-0.14297 z"
       id="path70" />
    <path
       d="m 37.742,16.584 v 0.78376 l -0.22221,0.03101 v -1.8983 L 37.742,15.46946 v 0.2291 q 0.08957,-0.1223 0.21876,-0.18948 0.12919,-0.06718 0.27733,-0.06718 0.28078,0 0.47543,0.20326 0.19637,0.20154 0.19637,0.49782 0,0.27905 -0.20154,0.48232 -0.20154,0.20326 -0.48404,0.20326 -0.15675,0 -0.28078,-0.06201 -0.1223,-0.06374 -0.20154,-0.18259 z m 0.46854,-0.9388 q -0.19809,0 -0.33418,0.14125 -0.13436,0.14125 -0.13436,0.34623 0,0.20498 0.13436,0.34624 0.13608,0.14125 0.33418,0.14125 0.19637,0 0.33245,-0.14297 0.13608,-0.14297 0.13608,-0.34451 0,-0.20154 -0.13608,-0.34451 -0.13608,-0.14297 -0.33245,-0.14297 z"
       id="path72" />
    <path
       d="m 39.446,14.227 v 2.5614 l -0.22221,0.03101 v -2.5563 z"
       id="path74" />
    <path
       d="m 41.024,15.769 -0.97497,0.60634 q 0.06374,0.11369 0.16364,0.1757 0.10163,0.06201 0.22566,0.06201 0.11713,0 0.21876,-0.0379 0.10163,-0.03962 0.19637,-0.11886 l 0.05684,0.20154 q -0.09646,0.08441 -0.22049,0.12919 -0.1223,0.04479 -0.25494,0.04479 -0.27733,0 -0.47026,-0.20671 -0.19293,-0.20671 -0.19293,-0.4961 0,-0.298 0.19465,-0.4961 0.19637,-0.19809 0.48232,-0.19809 0.16881,0 0.31006,0.08268 0.14297,0.08268 0.26527,0.25149 z m -0.28939,-0.02756 q -0.06201,-0.05857 -0.13436,-0.08613 -0.07235,-0.02756 -0.16192,-0.02756 -0.19293,0 -0.33073,0.1378 -0.13608,0.1378 -0.13608,0.3359 0,0.03445 0.01206,0.10163 0.0017,0.0069 0.0017,0.01034 z"
       id="path76" />
    <path
       d="m 43.529,14.527 -0.1602,0.16192 q -0.10852,-0.13264 -0.23082,-0.19809 -0.12058,-0.06546 -0.25838,-0.06546 -0.19637,0 -0.32556,0.13608 -0.12919,0.13608 -0.12919,0.33934 0,0.1068 0.03962,0.19809 0.04134,0.0913 0.11886,0.15503 0.09474,0.07924 0.34623,0.14986 0.1223,0.03617 0.18259,0.05857 0.21187,0.07924 0.32212,0.24288 0.11197,0.16364 0.11197,0.39619 0,0.31351 -0.21532,0.52883 -0.21532,0.21532 -0.52882,0.21532 -0.2136,0 -0.3893,-0.09991 -0.1757,-0.10163 -0.29628,-0.29284 l 0.1912,-0.17226 q 0.09474,0.17053 0.21876,0.25322 0.12402,0.08268 0.2825,0.08268 0.21188,0 0.34968,-0.13953 0.13953,-0.13953 0.13953,-0.3514 0,-0.10163 -0.03445,-0.18431 -0.03445,-0.08441 -0.10163,-0.15158 -0.09302,-0.0913 -0.43925,-0.19982 -0.07407,-0.02412 -0.11197,-0.03617 -0.21188,-0.0689 -0.32556,-0.22566 -0.11197,-0.15675 -0.11197,-0.38069 0,-0.30834 0.2136,-0.52021 0.21532,-0.2136 0.52366,-0.2136 0.18431,0 0.34451,0.08268 0.16192,0.08096 0.27389,0.23082 z"
       id="path78" />
    <path
       d="m 44.174,14.971 v 0.50471 h 0.32729 v 0.21187 H 44.174 v 0.57534 q 0,0.20498 0.04306,0.27044 0.04306,0.06373 0.1602,0.06373 h 0.04651 q 0.03617,0 0.0534,-0.0017 0.01895,-0.0017 0.03445,-0.0034 l -0.01034,0.21704 q -0.01895,0.0034 -0.04306,0.0052 -0.02412,0.0017 -0.07407,0.0017 -0.26011,0 -0.34623,-0.09474 -0.08613,-0.09474 -0.08613,-0.42375 v -0.60979 h -0.12747 l 0.01378,-0.21187 h 0.11369 v -0.40136 z"
       id="path80" />
    <path
       d="m 45.411,15.645 q -0.19637,0 -0.33245,0.14297 -0.13608,0.14125 -0.13608,0.34451 0,0.20498 0.13436,0.34624 0.13608,0.14125 0.33418,0.14125 0.19465,0 0.32901,-0.14297 0.13608,-0.14297 0.13608,-0.34451 0,-0.20154 -0.13608,-0.34451 -0.13436,-0.14297 -0.32901,-0.14297 z m -0.0034,-0.2136 q 0.28939,0 0.49265,0.20671 0.20498,0.20498 0.20498,0.49437 0,0.28939 -0.20326,0.49438 -0.20326,0.20498 -0.49437,0.20498 -0.29111,0 -0.49438,-0.20326 -0.20154,-0.20498 -0.20154,-0.4961 0,-0.29111 0.20154,-0.4961 0.20326,-0.20498 0.49438,-0.20498 z"
       id="path82" />
    <path
       d="m 46.986,15.455 v 0.23599 h -0.0534 q -0.14642,0 -0.22566,0.10508 -0.07751,0.10335 -0.07751,0.298 v 0.69419 l -0.22221,0.03101 v -1.3195 l 0.22221,-0.03101 v 0.20498 q 0.06373,-0.1068 0.15503,-0.16192 0.0913,-0.05684 0.20154,-0.05684 z"
       id="path84" />
    <path
       d="m 48.39,15.769 -0.97497,0.60634 q 0.06374,0.11369 0.16364,0.1757 0.10163,0.06201 0.22566,0.06201 0.11713,0 0.21876,-0.0379 0.10163,-0.03962 0.19637,-0.11886 l 0.05684,0.20154 q -0.09646,0.08441 -0.22049,0.12919 -0.1223,0.04479 -0.25494,0.04479 -0.27733,0 -0.47026,-0.20671 -0.19293,-0.20671 -0.19293,-0.4961 0,-0.298 0.19465,-0.4961 0.19637,-0.19809 0.48232,-0.19809 0.16881,0 0.31006,0.08268 0.14297,0.08268 0.26527,0.25149 z m -0.28939,-0.02756 q -0.06201,-0.05857 -0.13436,-0.08613 -0.07235,-0.02756 -0.16192,-0.02756 -0.19293,0 -0.33073,0.1378 -0.13608,0.1378 -0.13608,0.3359 0,0.03445 0.01206,0.10163 0.0017,0.0069 0.0017,0.01034 z"
       id="path86" />
  </g>
  <style
     id="style92">.st0{fill:url(#SVGID_1_)}.st1{fill:url(#SVGID_2_)}.st2{fill:url(#SVGID_3_)}.st3{fill:url(#SVGID_4_)}</style>
</svg>
