<?xml version="1.0" standalone="no"?>
<!DOCTYPE svg PUBLIC "-//W3C//DTD SVG 20010904//EN"
 "http://www.w3.org/TR/2001/REC-SVG-20010904/DTD/svg10.dtd">
<svg version="1.0" xmlns="http://www.w3.org/2000/svg"
 width="100.000000pt" height="100.000000pt" viewBox="0 0 100.000000 100.000000"
 preserveAspectRatio="xMidYMid meet">

<g transform="translate(0.000000,100.000000) scale(0.100000,-0.100000)"
fill="#000000" stroke="none">
<path d="M54 924 c-17 -8 -36 -26 -43 -40 -16 -35 -15 -733 0 -768 25 -54 41
-56 487 -56 273 0 420 4 441 11 60 21 61 30 61 429 0 399 -1 408 -61 429 -22
7 -167 11 -443 11 -349 0 -416 -3 -442 -16z m856 -533 c0 -225 0 -230 -21
-236 -12 -4 -194 -4 -405 0 l-384 8 0 228 0 229 405 0 405 0 0 -229z"/>
</g>
</svg>
